<?xml version="1.0" encoding="UTF-8" standalone="no"?>
<!-- Created with Inkscape (http://www.inkscape.org/) -->

<svg
   version="1.1"
   id="svg1"
   width="242.59509"
   height="410.01822"
   viewBox="0 0 242.59509 410.01822"
   sodipodi:docname="three_finger.png"
   inkscape:export-filename="three_finger.svg"
   inkscape:export-xdpi="847"
   inkscape:export-ydpi="847"
   xmlns:inkscape="http://www.inkscape.org/namespaces/inkscape"
   xmlns:sodipodi="http://sodipodi.sourceforge.net/DTD/sodipodi-0.dtd"
   xmlns="http://www.w3.org/2000/svg"
   xmlns:svg="http://www.w3.org/2000/svg">
  <defs
     id="defs1" />
  <sodipodi:namedview
     id="namedview1"
     pagecolor="#ffffff"
     bordercolor="#666666"
     borderopacity="1.0"
     inkscape:showpageshadow="2"
     inkscape:pageopacity="0.0"
     inkscape:pagecheckerboard="0"
     inkscape:deskcolor="#d1d1d1">
    <inkscape:page
       x="0"
       y="0"
       width="242.59509"
       height="410.01822"
       id="page2"
       margin="0"
       bleed="0" />
  </sodipodi:namedview>
  <g
     inkscape:groupmode="layer"
     inkscape:label="Image"
     id="g1"
     transform="translate(-76.285798,-0.11910833)">
    <g
       id="g9">
      <path
         style="fill:#f7e3a0"
         d="m 107.26375,409.28242 c 1.52006,-0.22986 3.77006,-0.22371 5,0.0136 1.22994,0.23736 -0.0138,0.42542 -2.76375,0.41792 -2.75,-0.008 -3.75631,-0.20172 -2.23625,-0.43157 z m 113.00528,0.0246 c 0.97297,-0.25354 2.32297,-0.23687 3,0.0371 0.67703,0.27393 -0.11903,0.48137 -1.76903,0.46099 -1.65,-0.0204 -2.20394,-0.2445 -1.23097,-0.49804 z M 88.25,408.31067 c 0.9625,-0.25152 2.5375,-0.25152 3.5,0 0.9625,0.25153 0.175,0.45733 -1.75,0.45733 -1.925,0 -2.7125,-0.2058 -1.75,-0.45733 z M 95.157895,324 c 0,-1.375 0.226973,-1.9375 0.504386,-1.25 0.277412,0.6875 0.277412,1.8125 0,2.5 -0.277413,0.6875 -0.504386,0.125 -0.504386,-1.25 z M 79.078947,260.41667 c 0.04798,-1.16495 0.284941,-1.4019 0.604167,-0.60417 0.288871,0.72187 0.253344,1.58438 -0.07895,1.91667 -0.332292,0.33229 -0.568641,-0.25834 -0.52522,-1.3125 z m -1,-7 c 0.04798,-1.16495 0.284941,-1.4019 0.604167,-0.60417 0.288871,0.72187 0.253344,1.58437 -0.07895,1.91667 -0.332292,0.33229 -0.568641,-0.25834 -0.52522,-1.3125 z M 77.194949,244.5 c 0.02038,-1.65 0.244498,-2.20394 0.498042,-1.23097 0.253543,0.97297 0.236869,2.32297 -0.03705,3 C 77.382014,246.94606 77.174569,246.15 77.194949,244.5 Z m -0.908935,-19 c 0.0075,-2.75 0.201713,-3.75631 0.431567,-2.23625 0.229855,1.52006 0.223712,3.77006 -0.01365,5 -0.237362,1.22994 -0.425424,-0.0137 -0.417917,-2.76375 z m 0.908935,-21 c 0.02038,-1.65 0.244498,-2.20394 0.498042,-1.23097 0.253543,0.97297 0.236869,2.32297 -0.03705,3 C 77.382014,206.94606 77.174569,206.15 77.194949,204.5 Z m 229.677491,-6.25 c -1.24387,-1.58606 -1.2085,-1.62143 0.37756,-0.37756 1.66575,1.30637 2.19548,2.12756 1.37244,2.12756 -0.20765,0 -0.99515,-0.7875 -1.75,-1.75 z M 78.157895,193 c 0,-1.375 0.226973,-1.9375 0.504386,-1.25 0.277412,0.6875 0.277412,1.8125 0,2.5 -0.277413,0.6875 -0.504386,0.125 -0.504386,-1.25 z m 221.714545,-1.75 c -1.24387,-1.58606 -1.2085,-1.62143 0.37756,-0.37756 1.66575,1.30637 2.19548,2.12756 1.37244,2.12756 -0.20765,0 -0.99515,-0.7875 -1.75,-1.75 z M 79.157895,183 c 0,-1.375 0.226973,-1.9375 0.504386,-1.25 0.277412,0.6875 0.277412,1.8125 0,2.5 -0.277413,0.6875 -0.504386,0.125 -0.504386,-1.25 z m 0.921052,-9.58333 c 0.04798,-1.16495 0.284941,-1.4019 0.604167,-0.60417 0.288871,0.72187 0.253344,1.58437 -0.07895,1.91667 -0.332292,0.33229 -0.568641,-0.25834 -0.52522,-1.3125 z m 1,-8 c 0.04798,-1.16495 0.284941,-1.4019 0.604167,-0.60417 0.288871,0.72187 0.253344,1.58437 -0.07895,1.91667 -0.332292,0.33229 -0.568641,-0.25834 -0.52522,-1.3125 z m 1,-8 c 0.04798,-1.16495 0.284941,-1.4019 0.604167,-0.60417 0.288871,0.72187 0.253344,1.58437 -0.07895,1.91667 -0.332292,0.33229 -0.568641,-0.25834 -0.52522,-1.3125 z m 1,-8 c 0.04798,-1.16495 0.284941,-1.4019 0.604167,-0.60417 0.288871,0.72187 0.253344,1.58437 -0.07895,1.91667 -0.332292,0.33229 -0.568641,-0.25834 -0.52522,-1.3125 z M 87.5,140 c 0.995486,-1.1 2.034975,-2 2.309975,-2 0.275,0 -0.314489,0.9 -1.309975,2 -0.995486,1.1 -2.034975,2 -2.309975,2 -0.275,0 0.314489,-0.9 1.309975,-2 z m 22.57895,-12.58333 c 0.048,-1.16495 0.28494,-1.4019 0.60416,-0.60417 0.28887,0.72187 0.25335,1.58437 -0.0789,1.91667 -0.3323,0.33229 -0.56864,-0.25834 -0.52522,-1.3125 z m 148,-10 c 0.048,-1.16495 0.28494,-1.4019 0.60416,-0.60417 0.28887,0.72187 0.25335,1.58437 -0.0789,1.91667 -0.33229,0.33229 -0.56864,-0.25834 -0.52522,-1.3125 z M 111.15789,115 c 0,-1.375 0.22698,-1.9375 0.50439,-1.25 0.27741,0.6875 0.27741,1.8125 0,2.5 -0.27741,0.6875 -0.50439,0.125 -0.50439,-1.25 z m 1.03706,-12.5 c 0.0204,-1.65 0.2445,-2.20394 0.49804,-1.23097 0.25354,0.97297 0.23687,2.32297 -0.037,3 -0.27393,0.67703 -0.48137,-0.11903 -0.46099,-1.76903 z m 146.14786,-8 c 0.004,-4.4 0.17944,-6.075605 0.39069,-3.723567 0.21124,2.352038 0.20827,5.952038 -0.007,8 C 258.51202,100.82439 258.33918,98.9 258.34281,94.5 Z M 113.15789,90 c 0,-1.375 0.22698,-1.9375 0.50439,-1.25 0.27741,0.6875 0.27741,1.8125 0,2.5 -0.27741,0.6875 -0.50439,0.125 -0.50439,-1.25 z m 1,-12 c 0,-1.375 0.22698,-1.9375 0.50439,-1.25 0.27741,0.6875 0.27741,1.8125 0,2.5 -0.27741,0.6875 -0.50439,0.125 -0.50439,-1.25 z m 1.03706,-11.5 c 0.0204,-1.65 0.2445,-2.203936 0.49804,-1.230968 0.25354,0.972967 0.23687,2.322967 -0.037,3 C 115.38201,68.946064 115.17457,68.15 115.19495,66.5 Z M 259.232,60 c 0,-1.925 0.2058,-2.7125 0.45733,-1.75 0.25152,0.9625 0.25152,2.5375 0,3.5 C 259.4378,62.7125 259.232,61.925 259.232,60 Z M 116.15789,56 c 0,-1.375 0.22698,-1.9375 0.50439,-1.25 0.27741,0.6875 0.27741,1.8125 0,2.5 -0.27741,0.6875 -0.50439,0.125 -0.50439,-1.25 z m 1.03706,-10.5 c 0.0204,-1.65 0.2445,-2.203936 0.49804,-1.230968 0.25354,0.972967 0.23687,2.322967 -0.037,3 C 117.38201,47.946064 117.17457,47.15 117.19495,45.5 Z M 260.232,45 c 0,-1.925 0.2058,-2.7125 0.45733,-1.75 0.25152,0.9625 0.25152,2.5375 0,3.5 C 260.4378,47.7125 260.232,46.925 260.232,45 Z M 118.07895,37.416667 c 0.048,-1.164943 0.28494,-1.4019 0.60416,-0.604167 0.28887,0.721875 0.25335,1.584375 -0.0789,1.916667 -0.3323,0.332291 -0.56864,-0.258334 -0.52522,-1.3125 z M 261.19495,30.5 c 0.0204,-1.65 0.2445,-2.203936 0.49804,-1.230968 0.25354,0.972967 0.23687,2.322967 -0.0371,3 C 261.38201,32.946064 261.17457,32.15 261.19495,30.5 Z M 217.60301,13.166667 c -0.28327,-0.458334 0.12038,-0.833334 0.89699,-0.833334 0.77661,0 1.18026,0.375 0.89699,0.833334 C 219.11373,13.625 218.71008,14 218.5,14 c -0.21008,0 -0.61373,-0.375 -0.89699,-0.833333 z M 171,8.5 C 172.29175,7.125 173.57363,6 173.84863,6 174.12363,6 173.29175,7.125 172,8.5 170.70825,9.875 169.42637,11 169.15137,11 168.87637,11 169.70825,9.875 171,8.5 Z M 213.40499,7.75 211.5,5.5 l 2.25,1.9049876 c 1.2375,1.0477431 2.25,2.0602431 2.25,2.25 0,0.8002534 -0.80479,0.2094572 -2.59501,-1.9049876 z m 43.46745,0.5 C 255.62857,6.6639444 255.66394,6.6285741 257.25,7.8724447 258.91575,9.1788145 259.44548,10 258.62244,10 c -0.20765,0 -0.99515,-0.7875 -1.75,-1.75 z M 147.25,8.2837456 c 1.5125,-0.2291247 3.9875,-0.2291247 5.5,0 1.5125,0.2291246 0.275,0.4165902 -2.75,0.4165902 -3.025,0 -4.2625,-0.1874656 -2.75,-0.4165902 z m 40.5625,-7.96685964 c 0.72187,-0.28887061 1.58437,-0.25334429 1.91667,0.0789474 0.33229,0.33229167 -0.25834,0.56864035 -1.3125,0.5252193 -1.16495,-0.0479839 -1.4019,-0.2849403 -0.60417,-0.6041667 z m 10,0 c 0.72187,-0.28887061 1.58437,-0.25334429 1.91667,0.0789474 0.33229,0.33229167 -0.25834,0.56864035 -1.3125,0.5252193 -1.16495,-0.0479839 -1.4019,-0.2849403 -0.60417,-0.6041667 z"
         id="path15" />
      <path
         style="fill:#f6d35d"
         d="m 116.26375,409.28242 c 1.52006,-0.22986 3.77006,-0.22371 5,0.0136 1.22994,0.23736 -0.0138,0.42542 -2.76375,0.41792 -2.75,-0.008 -3.75631,-0.20172 -2.23625,-0.43157 z m 100.54875,0.0345 c 0.72187,-0.28887 1.58437,-0.25335 1.91667,0.0789 0.33229,0.33229 -0.25834,0.56864 -1.3125,0.52522 -1.16495,-0.048 -1.4019,-0.28494 -0.60417,-0.60416 z M 94.269032,408.30701 c 0.972967,-0.25354 2.322967,-0.23687 3,0.0371 0.677032,0.27393 -0.119032,0.48137 -1.769032,0.46099 -1.65,-0.0204 -2.203936,-0.2445 -1.230968,-0.49804 z m 134.543468,0.01 c 0.72187,-0.28887 1.58437,-0.25335 1.91667,0.0789 0.33229,0.33229 -0.25834,0.56864 -1.3125,0.52522 -1.16495,-0.048 -1.4019,-0.28494 -0.60417,-0.60416 z M 239,405.62244 c 0,-0.20765 0.7875,-0.99515 1.75,-1.75 1.58606,-1.24387 1.62143,-1.2085 0.37756,0.37756 C 239.82119,405.91575 239,406.44548 239,405.62244 Z M 96.272364,314 c 0,-2.475 0.195016,-3.4875 0.433369,-2.25 0.238353,1.2375 0.238353,3.2625 0,4.5 -0.238353,1.2375 -0.433369,0.225 -0.433369,-2.25 z M 77.078947,240.41667 c 0.04798,-1.16495 0.284941,-1.4019 0.604167,-0.60417 0.288871,0.72187 0.253344,1.58437 -0.07895,1.91667 -0.332292,0.33229 -0.568641,-0.25834 -0.52522,-1.3125 z M 77.194949,209.5 c 0.02038,-1.65 0.244498,-2.20394 0.498042,-1.23097 0.253543,0.97297 0.236869,2.32297 -0.03705,3 C 77.382014,211.94606 77.174569,211.15 77.194949,209.5 Z m 0.883998,-13.08333 c 0.04798,-1.16495 0.284941,-1.4019 0.604167,-0.60417 0.288871,0.72187 0.253344,1.58437 -0.07895,1.91667 -0.332292,0.33229 -0.568641,-0.25834 -0.52522,-1.3125 z M 303.40499,194.75 301.5,192.5 l 2.25,1.90499 c 2.11444,1.79022 2.70524,2.59501 1.90499,2.59501 -0.18976,0 -1.20226,-1.0125 -2.25,-2.25 z M 80.078947,176.41667 c 0.04798,-1.16495 0.284941,-1.4019 0.604167,-0.60417 0.288871,0.72187 0.253344,1.58437 -0.07895,1.91667 -0.332292,0.33229 -0.568641,-0.25834 -0.52522,-1.3125 z M 111.15789,119 c 0,-1.375 0.22698,-1.9375 0.50439,-1.25 0.27741,0.6875 0.27741,1.8125 0,2.5 -0.27741,0.6875 -0.50439,0.125 -0.50439,-1.25 z m 0.92106,-12.58333 c 0.048,-1.16495 0.28494,-1.4019 0.60416,-0.60417 0.28887,0.72187 0.25335,1.58437 -0.0789,1.91667 -0.3323,0.33229 -0.56864,-0.25834 -0.52522,-1.3125 z m 1,-13.000003 c 0.048,-1.164943 0.28494,-1.4019 0.60416,-0.604167 0.28887,0.721875 0.25335,1.584375 -0.0789,1.916667 -0.3323,0.332291 -0.56864,-0.258334 -0.52522,-1.3125 z M 258.232,84 c 0,-1.925 0.2058,-2.7125 0.45733,-1.75 0.25152,0.9625 0.25152,2.5375 0,3.5 C 258.4378,86.7125 258.232,85.925 258.232,84 Z M 114.07895,81.416667 c 0.048,-1.164943 0.28494,-1.4019 0.60416,-0.604167 0.28887,0.721875 0.25335,1.584375 -0.0789,1.916667 -0.3323,0.332291 -0.56864,-0.258334 -0.52522,-1.3125 z M 259.15789,55 c 0,-1.375 0.22698,-1.9375 0.50439,-1.25 0.27741,0.6875 0.27741,1.8125 0,2.5 -0.27741,0.6875 -0.50439,0.125 -0.50439,-1.25 z m 1,-15 c 0,-1.375 0.22698,-1.9375 0.50439,-1.25 0.27741,0.6875 0.27741,1.8125 0,2.5 -0.27741,0.6875 -0.50439,0.125 -0.50439,-1.25 z m 0.92106,-13.583333 c 0.048,-1.164943 0.28494,-1.4019 0.60416,-0.604167 0.28887,0.721875 0.25335,1.584375 -0.0789,1.916667 -0.33229,0.332291 -0.56864,-0.258334 -0.52522,-1.3125 z M 221.5,10 c 0.99549,-1.1 2.03498,-2 2.30998,-2 0.275,0 -0.31449,0.9 -1.30998,2 -0.99549,1.1 -2.03498,2 -2.30998,2 -0.275,0 0.31449,-0.9 1.30998,-2 z M 191.76166,0.29273913 c 1.24391,-0.23919321 3.04391,-0.2301119 4,0.0201807 0.95609,0.2502926 -0.0617,0.44599614 -2.26166,0.43489676 -2.2,-0.0110994 -2.98225,-0.21588425 -1.73834,-0.45507746 z"
         id="path14" />
      <path
         style="fill:#fdd834"
         d="m 123,408.86499 c 0,-0.81053 -3.645,-1.00817 -12.75,-0.69133 -7.0125,0.24402 -11.4,0.13301 -9.75,-0.24668 l 3,-0.69035 -2.93856,-0.11832 L 97.622877,407 l 2.176456,-2.02768 c 1.197047,-1.11522 2.389187,-3.02772 2.649197,-4.25 1.60261,-7.53376 2.58623,-14.02998 2.98624,-19.72232 0.74566,-10.6113 4.4153,-24.74543 6.04103,-23.26786 0.46467,0.42232 0.49005,0.15505 0.0564,-0.59394 -0.43364,-0.749 -0.36357,-1.649 0.15572,-2 1.02133,-0.69037 7.79566,-15.19888 8.82607,-18.90272 0.38581,-1.38681 1.08658,-1.99069 1.808,-1.55804 0.748,0.44859 0.70399,0.12137 -0.12056,-0.89645 -0.80868,-0.99824 -0.927,-1.83257 -0.31363,-2.21165 0.54171,-0.3348 1.02536,-1.38736 1.07479,-2.33903 0.29301,-5.64212 0.87135,-8.32962 2.12483,-9.87392 1.23079,-1.51635 1.21954,-1.62656 -0.0874,-0.85639 -1.25547,0.73982 -1.29341,0.62875 -0.23275,-0.68129 0.69699,-0.86087 0.98635,-2.29725 0.64301,-3.19196 C 125.06693,313.73204 125.22529,313 125.76217,313 c 0.53688,0 1.2223,-1.51688 1.52316,-3.37085 0.30086,-1.85396 1.4428,-5.34146 2.53765,-7.75 2.80352,-6.1674 1.93873,-18.04886 -1.17776,-16.18145 -0.62987,0.37742 -0.51179,-0.0942 0.2624,-1.04812 1.06618,-1.31366 1.12682,-2.01514 0.25,-2.89196 C 128.52093,281.12093 128,279.565 128,278.3 c 0,-1.664 -0.57609,-2.3 -2.08333,-2.3 -1.23794,0 -1.9023,-0.50724 -1.63721,-1.25 0.24537,-0.6875 -0.14918,-2.43045 -0.87678,-3.87322 -0.7276,-1.44276 -1.04086,-2.90526 -0.69613,-3.25 0.34473,-0.34473 -0.23572,-0.66231 -1.28988,-0.70573 -1.14324,-0.0471 -1.39225,-0.28915 -0.61709,-0.59986 1.02511,-0.41089 0.95744,-1.04308 -0.32039,-2.9933 -0.89099,-1.35981 -1.70466,-4.35238 -1.80817,-6.65014 -0.1035,-2.29776 -0.45904,-4.62775 -0.79008,-5.17775 -0.33104,-0.55 -0.65114,-2.69178 -0.71132,-4.75951 -0.0602,-2.06773 -0.64902,-4.76773 -1.30851,-6 -0.65949,-1.23227 -1.051,-2.24049 -0.87003,-2.24049 1.00451,0 -2.32574,-7.41444 -3.53945,-7.88019 C 110.65323,230.31344 110,229.14865 110,228.03138 110,226.91412 109.55,226 109,226 c -0.55,0 -1,-0.46822 -1,-1.04049 0,-0.57227 -0.98053,-2.36674 -2.17897,-3.9877 -1.19843,-1.62097 -1.87629,-3.24988 -1.50636,-3.61982 0.36994,-0.36993 -0.14494,-1.24523 -1.14417,-1.94512 -1.31289,-0.91958 -1.73594,-2.29893 -1.52533,-4.97329 C 101.98955,206.06071 104.90087,198 106.13586,198 106.61114,198 107,197.1 107,196 c 0,-1.1 0.45,-2 1,-2 0.55,0 0.91084,-0.3375 0.80187,-0.75 -0.36052,-1.36476 1.31606,-5.25 2.26552,-5.25 0.51293,0 0.93261,-0.79987 0.93261,-1.77749 0,-0.97763 0.77931,-2.89013 1.73181,-4.25 0.9525,-1.35988 1.6275,-2.58501 1.5,-2.72251 C 115.10431,179.1125 115,178.55 115,178 c 0,-1.50221 2.58717,-1.20236 3.96658,0.45973 1.00308,1.20864 0.86206,1.39243 -0.81988,1.06852 -2.6566,-0.51161 -1.76295,2.14139 1.01871,3.02425 1.88619,0.59865 1.89797,0.71998 0.24708,2.5442 -0.95346,1.05356 -1.43632,2.2128 -1.07303,2.5761 C 118.70276,188.03609 119,187.80833 119,187.16667 119,186.525 119.47656,186 120.05902,186 c 0.58246,0 0.7809,0.45 0.44098,1 -0.33992,0.55 -0.11492,1 0.5,1 0.61492,0 0.83538,0.45734 0.48992,1.01631 -0.34546,0.55897 -1.04702,0.75742 -1.55902,0.44098 -1.34676,-0.83234 -1.14442,0.92919 0.2691,2.34271 0.66,0.66 0.7725,1.2 0.25,1.2 -0.5225,0 -0.95,1.0875 -0.95,2.41667 0,1.32916 0.42955,2.34166 0.95455,2.25 0.94847,-0.16561 1.18097,0.53727 1.42045,4.29437 0.0687,1.07858 0.94682,2.76608 1.95127,3.75 2.01815,1.97692 3.92057,6.44426 4.37722,10.27874 0.17747,1.49018 1.04665,2.63286 2.16494,2.84614 1.21999,0.23267 1.61898,-0.0473 1.14965,-0.80667 -0.43525,-0.70424 -0.16876,-1.03801 0.67557,-0.84613 2.03832,0.46323 6.34951,-4.3205 6.20659,-6.88687 -0.0675,-1.21206 0.35529,-2.11206 0.93954,-2 0.64003,0.12276 0.94806,-1.33151 0.77495,-3.6586 -0.18103,-2.43349 0.09,-3.62916 0.7326,-3.232 0.60862,0.37614 0.98698,-0.52862 0.93822,-2.24354 -0.045,-1.58064 0.19412,-3.32021 0.53126,-3.86571 0.33714,-0.5455 0.91948,-4.32285 1.29408,-8.39411 0.98794,-10.73703 1.17102,-12.40229 1.36354,-12.40229 0.26019,0 1.02522,-17.12343 1.08344,-24.25 0.0281,-3.4375 0.38012,-6.25 0.78231,-6.25 0.40219,0 0.79819,-0.7875 0.88001,-1.75 0.0818,-0.9625 0.31751,-3.775 0.52376,-6.25 0.42972,-5.15657 2.70381,-10.38564 6.11792,-14.06761 4.13274,-4.45697 4.96931,-6.56058 8.14229,-20.47426 0.7578,-3.323024 1.62901,-11.198024 1.93601,-17.499997 C 165.14615,69.465851 166.03728,55.378667 166.4934,51.5 167.75394,40.780955 170.39568,26.97042 171.75373,24 173.44068,20.310188 181.89851,13 184.48064,13 185.31629,13 186,12.635072 186,12.18905 c 0,-0.749371 6.07653,-2.5625869 12,-3.5807605 1.375,-0.236346 3.2875,-0.7430431 4.25,-1.1259935 2.3202,-0.9231402 2.21609,0.6554504 -0.25,3.790575 -1.1,1.398423 -2,2.76152 -2,3.029103 0,0.267584 -1.2659,1.841671 -2.81312,3.497972 -5.60201,5.996966 -6.7069,12.812525 -6.51699,40.200054 0.23798,34.318551 0.51161,42.42013 1.45374,43.04195 0.45162,0.29807 1.07916,2.32307 1.39454,4.5 0.31538,2.17693 1.06353,5.21034 1.66256,6.74092 1.02833,2.62749 1.19186,2.68992 2.92868,1.11812 1.01174,-0.91562 2.10842,-2.51194 2.43706,-3.54739 0.32864,-1.03545 1.00193,-1.6327 1.49621,-1.32722 0.49428,0.30548 1.20073,-0.70049 1.5699,-2.23548 0.36917,-1.535 1.4599,-4.36743 2.42384,-6.2943 C 208.05993,95.951698 213,74.762971 213,70.128723 c 0,-5.337362 7.84343,-42.893995 10.0098,-47.929867 1.1288,-2.623961 3.16337,-5.605175 4.52128,-6.62492 C 228.88899,14.554191 230,13.162482 230,12.481248 c 0,-1.353068 3.85153,-3.1522237 8.37269,-3.9111139 1.57999,-0.2652046 3.10165,-0.7111448 3.38149,-0.9909784 0.27983,-0.2798335 1.46212,0.017582 2.6273,0.6609224 1.16519,0.6433409 2.86872,1.0555405 3.78564,0.9159992 0.94631,-0.1440153 1.94827,0.6321263 2.31739,1.7951057 C 250.84215,12.078032 251.60955,13 252.18983,13 c 0.70651,0 0.7273,0.412947 0.0629,1.25 -1.03044,1.298269 -2.93421,6.699852 -3.8253,10.853511 -2.60536,12.144383 -3.24818,20.829666 -3.36045,45.403191 -0.10302,22.54738 0.22062,29.389973 1.96002,41.440358 1.89721,13.14377 2.48062,15.19277 6.52818,22.92802 2.44463,4.6719 4.44478,8.85136 4.44478,9.28771 0,0.43634 1.50861,4.06571 3.35246,8.06528 1.84386,3.99956 4.81761,11.99693 6.60835,17.77193 3.81565,12.3052 6.04324,18.01879 7.70005,19.75 1.51006,1.57786 4.57787,1.61127 6.12247,0.0667 0.65084,-0.65084 1.30334,-0.98834 1.45,-0.75 0.14667,0.23833 1.16667,2.19556 2.26667,4.3494 2.58531,5.06213 5.15183,6.70905 6.86613,4.40598 0.85686,-1.15115 1.70185,-1.39142 2.69143,-0.76531 0.79334,0.50195 1.04984,0.91953 0.57,0.92795 -0.47985,0.008 -0.41047,0.57781 0.15416,1.26531 1.39535,1.69897 0.3443,9.76684 -1.51454,11.62568 -1.60215,1.60215 -3.85931,7.08911 -3.46696,8.42789 0.12952,0.44197 -0.44754,1.48661 -1.28236,2.32143 -0.83482,0.83482 -1.51786,2.33061 -1.51786,3.32398 0,0.99337 -0.6963,2.38401 -1.54733,3.0903 -1.2359,1.02571 -1.28622,1.44982 -0.25,2.10714 1.05974,0.67224 1.0576,0.82576 -0.0117,0.83827 -0.71996,0.008 -1.0309,0.46531 -0.69098,1.01531 0.33992,0.55 0.14148,1 -0.44098,1 -0.58246,0 -1.05902,0.9 -1.05902,2 0,1.1 -0.47829,2 -1.06286,2 -0.58457,0 -0.96541,0.7875 -0.84631,1.75 0.1191,0.9625 -0.12079,2.65 -0.53308,3.75 -0.41229,1.1 -1.00289,2.675 -1.31244,3.5 -0.30956,0.825 -0.48024,1.87095 -0.37929,2.32433 0.10094,0.45338 -0.23046,0.56847 -0.73646,0.25574 -1.03623,-0.64042 -2.12956,1.64048 -2.12956,4.4427 0,1.02256 -0.51953,2.18028 -1.15451,2.57272 -0.76393,0.47214 -0.88081,0.27068 -0.34549,-0.59549 0.52397,-0.8478 0.41763,-1.06713 -0.30182,-0.62248 -0.61096,0.37759 -0.86347,1.33115 -0.56114,2.11901 0.30233,0.78787 -0.39232,2.75542 -1.54367,4.37235 -1.1513,1.61689 -2.09332,3.43286 -2.09332,4.03546 0,0.6026 -0.45,1.09563 -1,1.09563 -0.55,0 -1,0.675 -1,1.5 0,0.825 -0.43588,1.5 -0.96862,1.5 -0.53273,0 -0.70959,0.675 -0.39301,1.5 0.31659,0.825 0.0775,1.5 -0.53138,1.5 -0.60885,0 -1.10699,0.675 -1.10699,1.5 0,0.825 -0.39774,1.5 -0.88386,1.5 -0.48612,0 -1.88652,2.47041 -3.112,5.4898 -1.31013,3.22795 -2.66402,5.2204 -3.28608,4.83595 -0.64643,-0.39951 -0.82427,-0.0449 -0.4572,0.91167 0.39123,1.01951 -0.0709,1.74115 -1.32501,2.0691 -1.05917,0.27698 -2.24427,1.33382 -2.63356,2.34854 C 253.13737,293.69147 247.92837,301 246.92915,301 246.41812,301 246,301.70156 246,302.55902 c 0,0.92379 -0.4704,1.26829 -1.15451,0.84549 -0.68634,-0.42419 -0.88416,-0.2761 -0.48783,0.36518 0.36667,0.59329 -0.4638,3.20484 -1.84549,5.80345 -1.38169,2.59861 -2.51217,4.38513 -2.51217,3.97004 0,-0.41508 -1.35,0.69049 -3,2.45682 -1.65,1.76633 -3,3.83892 -3,4.60576 0,0.76683 -0.49814,1.39424 -1.10699,1.39424 -0.61554,0 -0.82735,0.72872 -0.47711,1.64144 0.50596,1.31851 0.35325,1.41186 -0.77622,0.47448 -1.10631,-0.91815 -1.54982,-0.79246 -2.08013,0.58948 -0.37274,0.97135 -0.18307,1.92009 0.42434,2.12256 0.63675,0.21225 0.28128,1.07476 -0.84583,2.0523 -1.06929,0.92739 -2.91583,3.55034 -4.10341,5.82877 -1.18758,2.27842 -3.26134,4.86471 -4.60834,5.7473 -1.85396,1.21476 -2.30505,2.17862 -1.85633,3.96648 0.67472,2.6883 -2.13995,8.961 -3.61257,8.05087 -0.52657,-0.32544 -0.95741,0.0833 -0.95741,0.90829 0,0.825 0.46568,1.7878 1.03484,2.13956 1.03789,0.64146 0.623,12.15396 -0.47767,13.25464 C 214.25072,369.08261 214,368.73333 214,368 c 0,-0.73333 -0.26146,-1.07187 -0.58102,-0.75231 -0.31956,0.31956 -0.0738,1.52886 0.54624,2.68733 1.47381,2.75383 0.27859,4.78067 -1.43622,2.43553 -1.15521,-1.57985 -1.279,-1.48886 -1.279,0.94016 0,1.47911 0.44189,2.68929 0.98199,2.68929 0.54009,0 0.66761,0.7875 0.28338,1.75 -1.13119,2.83362 -1.31338,6.2568 -0.36421,6.84342 0.4848,0.29963 0.58976,1.01676 0.23324,1.59363 -1.59613,2.58259 -2.22958,8.2959 -1.07776,9.7207 0.93573,1.15748 0.9235,1.31404 -0.0566,0.72519 -0.85066,-0.51106 -1.27201,-0.0133 -1.3189,1.55804 -0.14666,4.91507 -0.88849,8.29482 -1.89423,8.63006 -0.57713,0.19238 -0.752,0.83087 -0.38859,1.41888 0.37552,0.60761 0.19221,0.77953 -0.42467,0.39828 -0.59698,-0.36895 -1.36807,-0.21348 -1.71353,0.34549 C 204.57651,410.49423 123,410.37688 123,408.86499 Z m 70.71737,-223.19891 c -0.0979,-3.51929 0.36414,-4.73515 1.53263,-4.03314 0.99024,0.59492 0.99615,0.43716 0.0285,-0.75913 -0.9739,-1.20398 -0.91172,-1.95241 0.3067,-3.69196 0.84053,-1.20002 1.26616,-2.18185 0.94584,-2.18185 -0.32031,0 0.0934,-1.3068 0.91934,-2.904 2.12834,-4.11576 4.89872,-24.73377 4.44701,-33.096 -0.10398,-1.925 -0.19776,-4.88589 -0.20838,-6.57975 -0.0168,-2.6699 -0.32519,-3.02129 -2.31762,-2.64041 -1.26407,0.24164 -2.22223,0.72753 -2.12924,1.07975 0.093,0.35223 -0.58185,2.04846 -1.49964,3.76942 -0.9178,1.72096 -1.85716,4.64596 -2.08747,6.5 -0.23032,1.85404 -0.71098,4.06968 -1.06814,4.92363 -0.35717,0.85395 -0.7638,5.57895 -0.90363,10.5 -0.13983,4.92105 -0.48514,9.39736 -0.76736,9.94736 -0.64569,1.25835 -0.31194,13.18327 0.45973,16.4259 0.31751,1.33425 0.11217,2.98635 -0.45631,3.67133 -0.77882,0.93842 -0.55735,1.12088 0.89844,0.74018 1.06263,-0.27789 1.91746,-1.02998 1.89962,-1.67133 z m 18.55166,223.64093 c 0.97297,-0.25354 2.32297,-0.23687 3,0.0371 0.67703,0.27393 -0.11903,0.48137 -1.76903,0.46099 -1.65,-0.0204 -2.20394,-0.2445 -1.23097,-0.49804 z m -0.019,-16.88434 c 0,-2.30311 0.15222,-2.45533 0.97862,-0.97862 0.63817,1.14034 0.63817,2.08916 0,2.72733 -0.63816,0.63816 -0.97862,0.0298 -0.97862,-1.74871 z m 7.40571,-49.96785 c 0.30462,-0.79383 0.95671,-1.19436 1.44907,-0.89006 1.24011,0.76643 1.12596,1.13272 -0.55385,1.77732 -0.96661,0.37092 -1.26467,0.0755 -0.89522,-0.88726 z M 77.078947,237.41667 c 0.04798,-1.16495 0.284941,-1.4019 0.604167,-0.60417 0.288871,0.72187 0.253344,1.58437 -0.07895,1.91667 -0.332292,0.33229 -0.568641,-0.25834 -0.52522,-1.3125 z M 116,172.44098 c 0,-0.85746 0.45,-1.2809 1,-0.94098 0.55,0.33992 1,1.04148 1,1.55902 0,0.51754 -0.45,0.94098 -1,0.94098 -0.55,0 -1,-0.70156 -1,-1.55902 z m 1.22379,-1.61719 c -0.85892,-0.85892 -0.87984,-1.5333 -0.0775,-2.5 1.68932,-2.0355 2.65698,-1.58014 2.49797,1.1755 -0.16034,2.77889 -0.68108,3.06384 -2.42042,1.3245 z M 119,162 c 0,-1.86667 0.26667,-2.13333 1.2,-1.2 0.93333,0.93333 0.93333,1.46667 0,2.4 -0.93333,0.93333 -1.2,0.66667 -1.2,-1.2 z m 4.71922,-52.96572 c -0.31552,-1.20655 -0.32998,-3.17035 -0.0321,-4.364 0.29786,-1.19366 0.90558,-13.221953 1.35049,-26.729553 0.44491,-13.5076 1.06351,-26.3326 1.37466,-28.5 0.31115,-2.1674 0.80405,-6.640727 1.09533,-9.940727 0.85536,-9.690439 3.86329,-15.437728 10.42188,-19.913202 4.50479,-3.073993 10.89067,-4.219146 11.70429,-2.098881 0.31385,0.817881 0.0428,2.955188 -0.60244,4.74957 -2.6104,7.25998 -5.19661,18.882811 -6.62247,29.762513 -1.946,14.848457 -2.31419,16.943405 -3.31954,18.88773 -0.45851,0.886748 -1.14217,3.739281 -1.51925,6.338962 -0.37708,2.59968 -1.1096,4.988737 -1.62782,5.309017 C 135.424,82.855988 135,84.405009 135,85.977977 c 0,1.572969 -0.64747,4.133912 -1.43882,5.690983 -2.61906,5.153296 -4.95422,10.80317 -5.28528,12.78763 -0.17952,1.07613 -0.691,2.20113 -1.13662,2.5 -0.44561,0.29888 -1.26835,1.38221 -1.8283,2.40742 -0.96258,1.76238 -1.04937,1.7444 -1.59176,-0.32973 z M 126,19.622445 c 0,-0.207656 0.7875,-0.995156 1.75,-1.75 1.58606,-1.243871 1.62143,-1.208501 0.37756,0.377555 C 126.82119,19.915748 126,20.445479 126,19.622445 Z M 245.8125,5.316886 c 0.72187,-0.2888706 1.58437,-0.2533443 1.91667,0.078947 0.33229,0.3322917 -0.25834,0.5686404 -1.3125,0.5252193 -1.16495,-0.047984 -1.4019,-0.2849403 -0.60417,-0.6041663 z M 202,3.6069888 c 0,-0.2161562 0.69837,-0.6610017 1.55194,-0.9885456 0.88992,-0.3414963 1.29132,-0.1738489 0.94098,0.3930112 C 203.90566,3.9616577 202,4.4169019 202,3.6069888 Z M 237.75,3.294267 c 1.2375,-0.2383529 3.2625,-0.2383529 4.5,0 1.2375,0.2383529 0.225,0.4333689 -2.25,0.4333689 -2.475,0 -3.4875,-0.195016 -2.25,-0.4333689 z"
         id="path13" />
      <path
         style="fill:#fdd22a"
         d="m 206.8142,408.10639 c 2.16826,-1.90287 2.95223,-4.3968 3.1169,-9.91541 0.0469,-1.57134 0.46824,-2.0691 1.3189,-1.55804 0.98014,0.58885 0.99237,0.43229 0.0566,-0.72519 -1.15182,-1.4248 -0.51837,-7.13811 1.07776,-9.7207 0.35652,-0.57687 0.25156,-1.294 -0.23324,-1.59363 -0.94917,-0.58662 -0.76698,-4.0098 0.36421,-6.84342 0.38423,-0.9625 0.25671,-1.75 -0.28338,-1.75 -0.5401,0 -0.98199,-1.21018 -0.98199,-2.68929 0,-2.42902 0.12379,-2.52001 1.279,-0.94016 1.71481,2.34514 2.91003,0.3183 1.43622,-2.43553 -0.61999,-1.15847 -0.8658,-2.36777 -0.54624,-2.68733 0.3196,-0.31956 0.58106,0.019 0.58106,0.75231 0,0.73333 0.25072,1.08261 0.55717,0.77617 1.10067,-1.10068 1.51556,-12.61318 0.47767,-13.25464 C 214.46568,355.16977 214,354.20697 214,353.38197 c 0,-0.825 0.43084,-1.23373 0.95741,-0.90829 1.461,0.90295 4.28767,-5.36109 3.61987,-8.02181 -0.41419,-1.65027 -0.001,-2.74208 1.41226,-3.73199 1.09875,-0.7696 1.6631,-1.76855 1.2541,-2.2199 -0.409,-0.45135 -0.22597,-0.52464 0.40673,-0.16286 0.69249,0.39595 2.02466,-1.01962 3.34694,-3.55646 1.20812,-2.31783 3.07146,-4.97301 4.14075,-5.9004 1.12711,-0.97754 1.48258,-1.84005 0.84583,-2.0523 -0.60741,-0.20247 -0.79708,-1.15121 -0.42434,-2.12256 0.53031,-1.38194 0.97382,-1.50763 2.08013,-0.58948 1.12947,0.93738 1.28218,0.84403 0.77622,-0.47448 C 232.06566,322.72872 232.27747,322 232.89301,322 233.50186,322 234,321.37259 234,320.60576 c 0,-0.76684 1.35,-2.83943 3,-4.60576 1.65,-1.76633 3,-2.8719 3,-2.45682 0,0.41509 1.13048,-1.37143 2.51217,-3.97004 1.38169,-2.59861 2.21216,-5.21016 1.84549,-5.80345 -0.39633,-0.64128 -0.19851,-0.78937 0.48783,-0.36518 0.68411,0.4228 1.15451,0.0783 1.15451,-0.84549 0,-0.85746 0.41812,-1.55902 0.92915,-1.55902 0.99922,0 6.20822,-7.30853 7.37314,-10.34494 0.38929,-1.01472 1.57439,-2.07156 2.63356,-2.34854 1.25412,-0.32795 1.71624,-1.04959 1.32501,-2.0691 -0.36707,-0.95657 -0.18923,-1.31118 0.4572,-0.91167 0.62206,0.38445 1.97595,-1.608 3.28608,-4.83595 1.22548,-3.01939 2.62588,-5.4898 3.112,-5.4898 0.48612,0 0.88386,-0.675 0.88386,-1.5 0,-0.825 0.49814,-1.5 1.10699,-1.5 0.60884,0 0.84797,-0.675 0.53138,-1.5 -0.31658,-0.825 -0.13972,-1.5 0.39301,-1.5 0.53274,0 0.96862,-0.675 0.96862,-1.5 0,-0.825 0.45,-1.5 1,-1.5 0.55,0 1,-0.49303 1,-1.09563 0,-0.6026 0.94202,-2.41857 2.09337,-4.03549 1.15135,-1.61693 1.846,-3.58448 1.54367,-4.37235 -0.30233,-0.78786 -0.0498,-1.74142 0.56114,-2.11901 0.71945,-0.44465 0.82579,-0.22532 0.30182,0.62248 -0.53532,0.86617 -0.41844,1.06763 0.34549,0.59549 0.63498,-0.39244 1.15451,-1.75128 1.15451,-3.01965 0,-1.26837 0.9,-3.45029 2,-4.84871 1.1,-1.39842 2,-3.23255 2,-4.07584 0,-0.84329 0.40775,-1.78526 0.90612,-2.09327 0.49837,-0.30801 0.67088,-1.45956 0.38337,-2.55902 -0.29218,-1.1173 -0.0302,-1.999 0.59388,-1.999 0.61415,0 1.11663,-0.9 1.11663,-2 0,-1.1 0.47656,-2 1.05902,-2 0.58246,0 0.7809,-0.45 0.44098,-1 -0.33992,-0.55 -0.029,-1.00689 0.69098,-1.01531 1.06929,-0.0125 1.07143,-0.16603 0.0117,-0.83827 -1.03622,-0.65732 -0.9859,-1.08143 0.25,-2.10714 0.85103,-0.70629 1.54733,-2.09693 1.54733,-3.0903 0,-0.99337 0.68304,-2.48916 1.51786,-3.32398 0.83482,-0.83482 1.41188,-1.87946 1.28236,-2.32143 -0.39235,-1.33878 1.86481,-6.82574 3.46696,-8.42789 1.85884,-1.85884 2.90989,-9.92671 1.51454,-11.62568 -0.56463,-0.6875 -0.63401,-1.25689 -0.15416,-1.26531 0.47984,-0.008 0.22334,-0.426 -0.57,-0.92795 -0.98234,-0.62154 -1.81339,-0.40534 -2.60539,0.67779 -1.89407,2.59029 -4.20246,0.92417 -3.67728,-2.65414 0.25064,-1.70768 0.88098,-3.36771 1.40076,-3.68895 1.17626,-0.72697 6.82435,1.53239 6.82435,2.72988 0,0.48327 0.62041,0.87868 1.37868,0.87868 0.75827,0 1.94043,1.35618 2.62701,3.01373 1.83098,4.42039 0.34677,14.168 -3.57613,23.48627 -0.69463,1.65 -2.37337,6.15 -3.73053,10 -1.35716,3.85 -4.99464,12.30372 -8.0833,18.78603 -3.08865,6.48232 -5.61573,12.21982 -5.61573,12.75 0,0.53019 -0.45,0.96397 -1,0.96397 -0.55,0 -1.02161,0.7875 -1.04803,1.75 -0.0264,0.9625 -0.88189,3.325 -1.90105,5.25 -1.01915,1.925 -2.95236,5.76359 -4.29602,8.53021 -1.34365,2.76661 -3.60102,6.27973 -5.01638,7.80693 -1.41536,1.5272 -4.29804,5.3386 -6.40595,8.46979 -2.10791,3.13119 -4.1371,5.92425 -4.50931,6.20681 -1.39634,1.06002 -8.72157,14.34179 -8.29263,15.03582 0.24604,0.39811 -0.2227,1.27991 -1.04164,1.95958 -0.81894,0.67966 -1.4931,1.74315 -1.49813,2.3633 -0.005,0.62016 -1.11596,3.37756 -2.46873,6.12756 -1.35277,2.75 -2.47366,5.52553 -2.49086,6.16784 -0.0172,0.64231 -1.10156,3.34231 -2.40969,6 -2.24187,4.55475 -4.80597,12.08244 -7.60683,22.33216 -0.67632,2.475 -1.82767,6.075 -2.55854,8 -0.73088,1.925 -1.62633,5.75 -1.98991,8.5 -0.36357,2.75 -0.95159,5.45 -1.30671,6 -0.35512,0.55 -0.6639,1.9 -0.68619,3 -0.0223,1.1 -0.37825,2.54435 -0.79105,3.20967 -0.41279,0.66532 -0.90334,3.59032 -1.0901,6.5 -0.18677,2.90968 -0.687,6.12325 -1.11163,7.14125 -0.47762,1.14505 -0.30332,2.14062 0.45704,2.61055 0.73059,0.45153 -0.52847,1.00074 -3.10428,1.35411 -2.38336,0.32696 -6.35838,0.87061 -8.83338,1.20811 l -4.5,0.61363 z m 6.41442,-16.66234 c -0.8264,-1.47671 -0.97862,-1.32449 -0.97862,0.97862 0,1.77851 0.34046,2.38687 0.97862,1.74871 0.63817,-0.63817 0.63817,-1.58699 0,-2.72733 z M 222,342.45203 c 0,-1.18139 -1.89074,-1.17914 -2.34429,0.003 -0.36945,0.96277 -0.0714,1.25818 0.89522,0.88726 C 221.34792,343.03625 222,342.63573 222,342.45203 Z M 101.5,407.9533 c -1.3939,-0.63152 -0.7878,-0.72154 2,-0.29705 2.2,0.33499 4.1875,0.77437 4.41667,0.97641 0.85918,0.75747 -4.49696,0.19039 -6.41667,-0.67936 z m 13.26791,0.32197 c 1.79735,-0.22256 4.49735,-0.21797 6,0.0102 1.50265,0.22818 0.0321,0.41027 -3.26791,0.40466 -3.3,-0.006 -4.52944,-0.1923 -2.73209,-0.41486 z m -28.320004,-2.35956 c -0.2852,-0.46146 1.232108,-1.73214 3.371795,-2.82373 4.029126,-2.0555 5.738331,-5.67584 6.536829,-13.84592 0.174912,-1.78967 0.581434,-3.51736 0.903383,-3.83931 0.321949,-0.32195 0.358411,-2.00767 0.08103,-3.74605 -0.3365,-2.10887 0.853995,-7.2879 3.577357,-15.56267 2.24494,-6.82109 4.0817,-13.27665 4.0817,-14.34571 0,-1.06905 0.62275,-3.13817 1.38389,-4.59803 0.76114,-1.45986 2.04596,-4.22929 2.85514,-6.15429 0.80919,-1.925 2.41099,-5.525 3.55955,-8 1.9323,-4.16382 5.14914,-18.87553 5.13848,-23.5 -0.003,-1.1 0.007,-5.825 0.021,-10.5 0.0347,-11.51575 -0.91566,-20.982 -2.40937,-24 -1.24936,-2.52428 -3.07389,-8.98099 -4.0974,-14.5 -1.36271,-7.34806 -3.3685,-12.32633 -6.04462,-15.00245 C 104.08299,244.1739 103,242.5939 103,241.98644 c 0,-0.60746 -0.45,-0.82636 -1,-0.48644 -0.89228,0.55146 -1.46245,-2.08803 -1.10528,-5.1166 0.0724,-0.61413 -0.54926,-1.68173 -1.381518,-2.37244 C 98.680941,233.32024 98,231.92337 98,230.90679 c 0,-1.01657 -1.338054,-3.77397 -2.973453,-6.12755 -1.993146,-2.86843 -3.047863,-5.70077 -3.199152,-8.591 -0.134327,-2.56619 -0.823126,-4.6461 -1.701415,-5.13761 -1.502585,-0.84089 -1.89051,-1.92592 -2.842539,-7.9506 -0.437061,-2.76582 -0.09394,-3.74087 1.839645,-5.22776 1.307303,-1.00529 3.051914,-1.80618 3.876914,-1.77975 0.983948,0.0315 0.811931,0.34372 -0.5,0.90748 -1.715068,0.73699 -1.568647,0.86944 1.027759,0.92971 C 96.432526,197.99714 100,195.2736 100,192.98857 100,192.44486 100.66585,192 101.47968,192 c 1.90626,0 4.90939,-5.99804 6.50891,-13 0.69102,-3.025 1.60417,-6.4 2.02921,-7.5 0.42505,-1.1 1.32795,-4.7 2.00646,-8 0.67851,-3.3 1.81969,-8.475 2.53596,-11.5 2.00302,-8.45933 2.49003,-13.30158 2.91666,-29 0.21674,-7.975 0.8173,-17.2 1.33458,-20.5 0.51728,-3.3 1.02078,-10.245058 1.11889,-15.433462 0.0981,-5.188403 0.35775,-9.723673 0.57697,-10.078377 0.21922,-0.354704 1.11287,-10.503073 1.98589,-22.55193 1.47477,-20.353786 2.64047,-27.063807 5.6991,-32.805402 1.05065,-1.972245 0.9927,-2.029731 -0.77859,-0.772417 -1.05255,0.747127 0.33628,-0.731731 3.08628,-3.286351 2.75,-2.55462 6.00939,-4.901408 7.24309,-5.215086 1.2337,-0.313677 1.95167,-1.041848 1.59549,-1.618157 -0.35618,-0.576309 -0.24057,-0.8129412 0.25691,-0.525849 0.49748,0.287092 4.61701,0.237071 9.15451,-0.11116 4.5375,-0.34823 8.25,-0.3215908 8.25,0.0592 0,0.38079 0.72907,0.837841 1.62015,1.015669 1.27278,0.254002 0.78771,1.329765 -2.26239,5.01745 -5.99513,7.24833 -9.24434,16.900309 -11.39581,33.851992 C 142.35054,70.621706 139.5758,83.420915 134.34926,99 c -2.49097,7.425 -4.67443,14.4 -4.85213,15.5 -1.33458,8.26159 -1.42774,11.53485 -0.40128,14.10048 1.59917,3.99714 2.77791,10.3595 2.0075,10.83565 -0.34979,0.21618 -0.61631,3.46899 -0.59227,7.22846 0.024,3.75948 -0.36376,7.1226 -0.8618,7.47361 -0.49803,0.351 -0.55524,1.20494 -0.12714,1.89763 0.66409,1.07451 0.96223,4.76115 1.59432,19.71417 0.0523,1.2375 0.54565,2.25 1.09632,2.25 0.55066,0 0.77096,0.6 0.48955,1.33333 -0.28141,0.73334 0.12045,1.33334 0.89301,1.33334 0.77256,0 1.40466,-0.80264 1.40466,-1.78365 0,-0.981 0.5625,-2.1435 1.25,-2.58333 0.6875,-0.43983 1.3219,-2.14969 1.40977,-3.79969 0.0879,-1.65 0.4306,-6.15 0.76161,-10 0.33102,-3.85 0.769,-10.28488 0.9733,-14.29973 0.2043,-4.01485 0.64516,-7.57345 0.97971,-7.90799 0.33454,-0.33454 0.0497,-1.28535 -0.63307,-2.11289 -0.98951,-1.19941 -0.98649,-1.5904 0.0149,-1.92742 0.69093,-0.23254 1.0128,-0.81668 0.71527,-1.29809 -0.47419,-0.76724 2.10314,-4.94102 7.07282,-11.45388 5.55807,-7.28395 9.84624,-15.74156 10.90092,-21.5 1.08196,-5.907425 2.49316,-23.758173 3.08317,-39 0.3087,-7.975 0.76909,-15.808691 1.02308,-17.408203 0.25398,-1.599512 0.73201,-5.874512 1.06228,-9.5 0.33027,-3.625488 1.65614,-9.256469 2.94639,-12.513291 1.29024,-3.256822 2.10325,-6.314111 1.80667,-6.793976 -0.65706,-1.063147 2.55757,-6.193463 3.37106,-5.37997 0.80898,0.808975 3.35113,-1.4515 2.74157,-2.437792 -0.79864,-1.2922228 4.41569,-4.856472 8.12199,-5.5517775 1.8692,-0.3506647 3.39754,-0.9249914 3.3963,-1.2762814 -0.004,-1.0157853 14.37286,-0.066992 15.70845,1.0367006 0.6634,0.5482235 1.6759,0.706472 2.25,0.3516632 C 204.53029,3.1722641 205,3.3326857 205,3.8835654 c 0,0.5508797 0.9,0.8282752 2,0.6164346 1.20798,-0.2326351 2,0.1531136 2,0.9740843 0,0.747587 0.49565,1.5244641 1.10143,1.7263936 0.95047,0.3168212 -6.97639,11.2242391 -9.3743,12.8991111 -1.21653,0.849719 -3.6256,5.635652 -5.48687,10.900411 -1.53898,4.353127 -1.99814,23.349878 -0.79762,33 0.23948,1.925 0.70696,11.6 1.03885,21.5 0.79255,23.64164 1.19589,26.83778 3.28555,26.0359 1.31147,-0.50326 1.25982,-0.22306 -0.27057,1.468 l -1.8914,2.08997 -1.1897,-2.29693 c -0.65433,-1.26332 -1.46415,-4.29456 -1.79959,-6.7361 -0.33543,-2.44154 -0.99315,-4.69154 -1.46158,-5 C 191.18155,100.42035 190.90928,92.521691 190.66989,58 190.47998,30.612471 191.58487,23.796912 197.18688,17.799946 198.7341,16.143645 200,14.569558 200,14.301974 c 0,-0.267583 0.9,-1.63068 2,-3.029103 2.46609,-3.1351246 2.5702,-4.7137152 0.25,-3.790575 C 201.2875,7.8652464 199.375,8.3719435 198,8.6082895 192.07653,9.6264631 186,11.439679 186,12.18905 186,12.635072 185.31629,13 184.48064,13 c -2.58213,0 -11.03996,7.310188 -12.72691,11 -1.35805,2.97042 -3.99979,16.780955 -5.26033,27.5 -0.45612,3.878667 -1.34725,17.965851 -2.05323,32.458133 -0.307,6.301973 -1.17821,14.176973 -1.93601,17.499997 -3.17298,13.91368 -4.00955,16.01729 -8.14229,20.47426 -3.41411,3.68197 -5.6882,8.91104 -6.11792,14.06761 -0.20625,2.475 -0.44194,5.2875 -0.52376,6.25 -0.0818,0.9625 -0.47782,1.75 -0.88001,1.75 -0.40219,0 -0.75423,2.8125 -0.78231,6.25 -0.0582,7.12657 -0.82325,24.25 -1.08344,24.25 -0.19252,0 -0.3756,1.66526 -1.36354,12.40229 -0.3746,4.07126 -0.95694,7.84861 -1.29408,8.39411 -0.33714,0.5455 -0.57621,2.28507 -0.53126,3.86571 0.0488,1.71492 -0.3296,2.61968 -0.93822,2.24354 -0.64261,-0.39716 -0.91363,0.79851 -0.7326,3.232 0.17311,2.32709 -0.13492,3.78136 -0.77495,3.6586 -0.58425,-0.11206 -1.00704,0.78794 -0.93954,2 0.14292,2.56637 -4.16827,7.3501 -6.20659,6.88687 -0.84433,-0.19188 -1.11082,0.14189 -0.67557,0.84613 0.46933,0.75939 0.0703,1.03934 -1.14965,0.80667 -1.11829,-0.21328 -1.98747,-1.35596 -2.16494,-2.84614 -0.45665,-3.83448 -2.35907,-8.30182 -4.37722,-10.27874 -1.00445,-0.98392 -1.88252,-2.67142 -1.95127,-3.75 -0.23948,-3.7571 -0.47198,-4.45998 -1.42045,-4.29437 -0.525,0.0917 -0.95455,-0.92084 -0.95455,-2.25 0,-1.32917 0.4275,-2.41667 0.95,-2.41667 0.5225,0 0.41,-0.54 -0.25,-1.2 -1.41352,-1.41352 -1.61586,-3.17505 -0.2691,-2.34271 0.512,0.31644 1.21356,0.11799 1.55902,-0.44098 C 121.83538,188.45734 121.61492,188 121,188 c -0.61492,0 -0.83992,-0.45 -0.5,-1 0.33992,-0.55 0.14148,-1 -0.44098,-1 -0.58246,0 -1.05902,0.525 -1.05902,1.16667 0,0.64166 -0.29724,0.86942 -0.66054,0.50613 -0.36329,-0.3633 0.11957,-1.52254 1.07303,-2.5761 1.65089,-1.82422 1.63911,-1.94555 -0.24708,-2.5442 -2.78166,-0.88286 -3.67531,-3.53586 -1.01871,-3.02425 1.68194,0.32391 1.82296,0.14012 0.81988,-1.06852 C 117.58717,176.79764 115,176.49779 115,178 c 0,0.55 0.10431,1.1125 0.23181,1.25 0.1275,0.1375 -0.5475,1.36263 -1.5,2.72251 -0.9525,1.35987 -1.73181,3.27237 -1.73181,4.25 0,0.97762 -0.41968,1.77749 -0.93261,1.77749 -0.94946,0 -2.62604,3.88524 -2.26552,5.25 C 108.91084,193.6625 108.55,194 108,194 c -0.55,0 -1,0.9 -1,2 0,1.1 -0.38886,2 -0.86414,2 -1.23499,0 -4.14631,8.06071 -4.49069,12.43358 -0.19434,2.46769 0.23272,4.09488 1.28169,4.8836 0.86523,0.65055 1.61814,1.74532 1.67314,2.43282 0.23304,2.91296 0.45305,3.33525 1.42478,2.73469 0.56362,-0.34834 0.96496,-0.2624 0.89185,0.19098 -0.24888,1.54336 1.31341,5.32433 2.2,5.32433 0.48585,0 0.88337,0.91412 0.88337,2.03138 0,1.11727 0.65323,2.28206 1.45163,2.58843 1.26898,0.48696 3.34054,4.96915 3.64203,7.88019 0.057,0.55 0.52273,1.78322 1.03505,2.74049 0.51231,0.95727 0.98072,3.43227 1.04091,5.5 0.0602,2.06773 0.38028,4.20951 0.71132,4.75951 0.33104,0.55 0.68658,2.87999 0.79008,5.17775 0.10351,2.29776 0.91718,5.29033 1.80817,6.65014 1.27783,1.95022 1.3455,2.58241 0.32039,2.9933 -0.77516,0.31071 -0.52615,0.55277 0.61709,0.59986 1.05416,0.0434 1.63461,0.361 1.28988,0.70573 -0.34473,0.34474 -0.0315,1.80724 0.69613,3.25 0.7276,1.44277 1.12215,3.18572 0.87678,3.87322 -0.26509,0.74276 0.39927,1.25 1.63721,1.25 1.50724,0 2.08333,0.636 2.08333,2.3 0,1.265 0.52093,2.82093 1.15762,3.45762 0.87682,0.87682 0.81618,1.5783 -0.25,2.89196 -0.77419,0.95388 -0.89227,1.42554 -0.2624,1.04812 3.11649,-1.86741 3.98128,10.01405 1.17776,16.18145 -1.09485,2.40854 -2.23679,5.89604 -2.53765,7.75 -0.30086,1.85397 -0.98628,3.37085 -1.52316,3.37085 -0.53688,0 -0.69524,0.73204 -0.35191,1.62675 0.34334,0.89471 0.054,2.33109 -0.64301,3.19196 -1.06066,1.31004 -1.02272,1.42111 0.23275,0.68129 1.30697,-0.77017 1.31822,-0.65996 0.0874,0.85639 -1.25348,1.5443 -1.83182,4.2318 -2.12483,9.87392 -0.0494,0.95167 -0.53308,2.00423 -1.07479,2.33903 -0.61337,0.37908 -0.49505,1.21341 0.31363,2.21165 0.82455,1.01782 0.86856,1.34504 0.12056,0.89645 -0.72142,-0.43265 -1.42219,0.17123 -1.808,1.55804 -1.03041,3.70384 -7.80474,18.21235 -8.82607,18.90272 -0.51929,0.351 -0.58936,1.251 -0.15572,2 0.43364,0.74899 0.40826,1.01626 -0.0564,0.59394 -1.58207,-1.43789 -5.28757,12.61161 -6.00495,22.76786 -0.98331,13.92131 -3.48089,23.84445 -6.312407,25.0799 -2.428683,1.05969 -12.105157,1.31534 -12.710537,0.33581 z M 118,173.05902 c 0,-0.51754 -0.45,-1.2191 -1,-1.55902 -0.55,-0.33992 -1,0.0835 -1,0.94098 0,0.85746 0.45,1.55902 1,1.55902 0.55,0 1,-0.42344 1,-0.94098 z m 1.64421,-3.55973 c 0.15901,-2.75564 -0.80865,-3.211 -2.49797,-1.1755 -0.80229,0.9667 -0.78137,1.64108 0.0775,2.5 1.73934,1.73934 2.26008,1.45439 2.42042,-1.3245 z M 120.2,160.8 c -0.93333,-0.93333 -1.2,-0.66667 -1.2,1.2 0,1.86667 0.26667,2.13333 1.2,1.2 0.93333,-0.93333 0.93333,-1.46667 0,-2.4 z m 6.93928,-53.84341 c 0.44562,-0.29887 0.9571,-1.42387 1.13662,-2.5 0.33106,-1.98446 2.66622,-7.634334 5.28528,-12.78763 C 134.35253,90.111889 135,87.550946 135,85.977977 c 0,-1.572968 0.424,-3.121989 0.94222,-3.442268 0.51822,-0.32028 1.25074,-2.709337 1.62782,-5.309017 0.37708,-2.599681 1.06074,-5.452214 1.51925,-6.338962 1.00535,-1.944325 1.37354,-4.039273 3.31954,-18.88773 1.42586,-10.879702 4.01207,-22.502533 6.62247,-29.762513 0.64519,-1.794382 0.91629,-3.931689 0.60244,-4.74957 -0.81362,-2.120265 -7.1995,-0.975112 -11.70429,2.098881 -6.55859,4.475474 -9.56652,10.222763 -10.42188,19.913202 -0.29128,3.3 -0.78418,7.773327 -1.09533,9.940727 -0.31115,2.1674 -0.92975,14.9924 -1.37466,28.5 -0.44491,13.5076 -1.05263,25.535893 -1.35049,26.729553 -0.29785,1.19365 -0.28339,3.15745 0.0321,4.364 0.54239,2.07413 0.62918,2.09211 1.59176,0.32973 0.55995,-1.02521 1.38269,-2.10854 1.8283,-2.40742 z m -42.543696,91.30566 c -0.329971,-0.32997 0.145779,-1.42397 1.057222,-2.4311 1.07929,-1.1926 1.233828,-1.83115 0.443165,-1.83115 -0.667703,0 -0.93589,-0.45 -0.595971,-1 0.339919,-0.55 1.068034,-1 1.618034,-1 0.55,0 0.721885,0.45 0.381966,1 -0.339919,0.55 -0.183605,1 0.347363,1 1.377371,0 0.214571,3.76226 -1.348139,4.36192 -0.717031,0.27515 -1.573669,0.2303 -1.90364,-0.0997 z m 1.9737,-8.15015 c -0.389114,-0.6296 -1.115184,-0.89275 -1.613487,-0.58478 -0.529784,0.32742 -0.69916,-3.29928 -0.407885,-8.73369 0.273967,-5.1115 0.567873,-11.67908 0.653125,-14.59464 0.08525,-2.91555 0.455985,-5.48702 0.823853,-5.71437 0.367868,-0.22736 0.359101,-2.45441 -0.01948,-4.949 C 85.595096,152.83198 85.704033,151 86.275113,151 c 0.526922,0 0.727392,-1.20656 0.445487,-2.68125 -0.281904,-1.47469 -0.04001,-3.71838 0.537549,-4.98598 1.155112,-2.5352 5.563996,-5.84396 6.517057,-4.8909 1.006474,1.00648 -1.576198,33.52066 -3.340769,42.05813 -1.875617,9.07474 -2.790744,11.35053 -3.865153,9.6121 z m 188.917746,-0.40014 c -1.53432,-1.83572 -3.92316,-8.09235 -7.52622,-19.71196 -1.79074,-5.775 -4.76449,-13.77237 -6.60835,-17.77193 C 259.50861,148.2285 258,144.59913 258,144.16279 c 0,-0.43635 -2.00015,-4.61581 -4.44478,-9.28771 -4.04756,-7.73525 -4.63097,-9.78425 -6.52818,-22.92802 -1.7394,-12.050385 -2.06304,-18.892978 -1.96002,-41.440358 0.11227,-24.573525 0.75509,-33.258808 3.36045,-45.403191 0.89109,-4.153659 2.79486,-9.555242 3.8253,-10.853511 0.66436,-0.837053 0.64357,-1.25 -0.0629,-1.25 -0.58028,0 -1.34768,-0.921968 -1.70532,-2.048817 -0.36912,-1.1629794 -1.37108,-1.939121 -2.31739,-1.7951057 -0.91692,0.1395413 -2.62045,-0.2726583 -3.78564,-0.9159992 -1.16518,-0.6433408 -2.34747,-0.9407559 -2.6273,-0.6609224 -0.27984,0.2798336 -1.8015,0.7257738 -3.38149,0.9909784 C 233.85153,9.3290243 230,11.12818 230,12.481248 c 0,0.681234 -1.11101,2.072943 -2.46892,3.092688 -1.35791,1.019745 -3.39248,4.000959 -4.52128,6.62492 C 220.84343,27.234728 213,64.791361 213,70.128723 c 0,4.634248 -4.94007,25.822975 -6.96358,29.867877 -0.96394,1.92687 -2.05467,4.7593 -2.42384,6.2943 -0.60976,2.53536 -2.61258,2.98848 -2.61258,0.59107 0,-0.55 0.49821,-0.69209 1.10713,-0.31576 0.71799,0.44374 0.91142,0.0251 0.5503,-1.19098 -0.30626,-1.03138 0.0573,-4.35023 0.80782,-7.37523 0.75056,-3.025 1.43449,-4.825 1.51983,-4 0.27933,2.700172 3.89976,-9.334895 4.96359,-16.5 0.57162,-3.85 1.73642,-11.725 2.58844,-17.5 3.73697,-25.329321 7.93741,-41.59019 12.37804,-47.918299 0.99642,-1.419936 1.69252,-3.3380435 1.5469,-4.2624622 -0.18302,-1.1619011 0.21849,-1.4953219 1.30064,-1.0800613 0.90983,0.3491339 1.30672,0.1821501 0.94772,-0.3987309 -0.37796,-0.6115497 1.07391,-0.9685798 3.74096,-0.9199387 2.39725,0.043721 4.11712,-0.3109255 3.82194,-0.7881025 -0.47516,-0.7681143 2.29284,-0.5613636 10.72669,0.801211 1.375,0.2221453 2.725,0.4937487 3,0.6035631 0.275,0.1098144 0.79434,0.1607599 1.15409,0.1132121 0.35975,-0.047548 1.20235,0.5741627 1.87244,1.3815789 C 253.69663,8.3393867 254.85323,9 255.59676,9 c 0.74354,0 2.0756,1.399529 2.96016,3.110065 0.88455,1.710535 1.18604,2.849111 0.66998,2.530169 -1.67822,-1.037197 -7.15181,11.98681 -8.64103,20.560667 -2.74341,15.794709 -4.22358,55.023096 -2.63365,69.799099 1.50309,13.96904 3.0531,19.01907 10.74255,35 7.92311,16.46653 8.96665,18.88668 14.01366,32.5 3.51458,9.4799 5.26464,12.5 7.24339,12.5 1.0878,0 2.41209,0.81146 2.94288,1.80324 1.68863,3.15524 -5.00487,5.78354 -7.40767,2.90872 z m -84.56772,-3.11473 c 0.56848,-0.68498 0.77382,-2.33708 0.45631,-3.67133 -0.77167,-3.24263 -1.10542,-15.16755 -0.45973,-16.4259 0.28222,-0.55 0.62753,-5.02631 0.76736,-9.94736 0.13983,-4.92105 0.54646,-9.64605 0.90363,-10.5 0.35716,-0.85395 0.83782,-3.06959 1.06814,-4.92363 0.23031,-1.85404 1.16967,-4.77904 2.08747,-6.5 0.91779,-1.72096 1.59263,-3.41719 1.49964,-3.76942 -0.093,-0.35222 0.86517,-0.83811 2.12924,-1.07975 1.99243,-0.38088 2.30087,-0.0295 2.31762,2.64041 0.0106,1.69386 0.1044,4.65475 0.20838,6.57975 0.45171,8.36223 -2.31867,28.98024 -4.44701,33.096 -0.82595,1.5972 -1.23965,2.904 -0.91934,2.904 0.32032,0 -0.10531,0.98183 -0.94584,2.18185 -1.21842,1.73955 -1.2806,2.48798 -0.3067,3.69196 0.96767,1.19629 0.96176,1.35405 -0.0285,0.75913 -1.16849,-0.70201 -1.63053,0.51385 -1.53263,4.03314 0.0178,0.64135 -0.83699,1.39344 -1.89962,1.67133 -1.45579,0.3807 -1.67726,0.19824 -0.89844,-0.74018 z M 84.078947,158.41667 c 0.04798,-1.16495 0.284941,-1.4019 0.604167,-0.60417 0.288871,0.72187 0.253344,1.58437 -0.07895,1.91667 -0.332292,0.33229 -0.568641,-0.25834 -0.52522,-1.3125 z M 172,10 c 0,-0.55 0.47656,-1 1.05902,-1 0.58246,0 0.7809,0.45 0.44098,1 -0.33992,0.55 -0.81648,1 -1.05902,1 C 172.19844,11 172,10.55 172,10 Z"
         id="path12" />
      <path
         style="fill:#fccd22"
         d="m 108.75,408.33772 c 0.6875,-0.27741 1.8125,-0.27741 2.5,0 0.6875,0.27741 0.125,0.50439 -1.25,0.50439 -1.375,0 -1.9375,-0.22698 -1.25,-0.50439 z m 107,0 c 0.6875,-0.27741 1.8125,-0.27741 2.5,0 0.6875,0.27741 0.125,0.50439 -1.25,0.50439 -1.375,0 -1.9375,-0.22698 -1.25,-0.50439 z m 6.5,-0.55821 c -2.21764,-1.06953 -2.88717,-2.809 -1.58313,-4.11304 0.36677,-0.36678 0.80143,-3.15993 0.96591,-6.207 0.16447,-3.04707 0.63678,-6.08448 1.04957,-6.7498 0.4128,-0.66532 0.76877,-2.10967 0.79105,-3.20967 0.0223,-1.1 0.33107,-2.45 0.68619,-3 0.35512,-0.55 0.94314,-3.25 1.30671,-6 0.36358,-2.75 1.25903,-6.575 1.98991,-8.5 0.73087,-1.925 1.88222,-5.525 2.55854,-8 2.80086,-10.24972 5.36496,-17.77741 7.60683,-22.33216 1.30813,-2.65769 2.39249,-5.35769 2.40969,-6 0.0172,-0.64231 1.13809,-3.41784 2.49086,-6.16784 1.35277,-2.75 2.4637,-5.5074 2.46873,-6.12756 0.005,-0.62015 0.67919,-1.68364 1.49813,-2.3633 0.81894,-0.67967 1.28768,-1.56147 1.04164,-1.95958 -0.42894,-0.69403 6.89629,-13.9758 8.29263,-15.03582 0.37221,-0.28256 2.4014,-3.07562 4.50931,-6.20681 2.10791,-3.13119 4.99059,-6.94259 6.40595,-8.46979 1.41536,-1.5272 3.67273,-5.04032 5.01638,-7.80693 1.34366,-2.76662 3.27687,-6.60521 4.29602,-8.53021 1.01916,-1.925 1.87463,-4.2875 1.90105,-5.25 C 277.97839,264.7875 278.45,264 279,264 c 0.55,0 1,-0.43378 1,-0.96397 0,-0.53018 2.52708,-6.26768 5.61573,-12.75 3.08866,-6.48231 6.72614,-14.93603 8.0833,-18.78603 1.35716,-3.85 3.0359,-8.35 3.73053,-10 3.9229,-9.31827 5.40711,-19.06588 3.57613,-23.48627 C 300.31911,196.35618 299.13695,195 298.37868,195 297.62041,195 297,194.60459 297,194.12132 c 0,-1.26228 -5.6788,-3.43787 -6.93964,-2.65862 -0.5832,0.36043 -1.06036,1.75378 -1.06036,3.09632 0,3.79411 -1.5622,2.87202 -1.82829,-1.07915 -0.19248,-2.858 0.1923,-3.6862 2.04561,-4.40295 1.54284,-0.59667 2.96825,-0.44924 4.39792,0.4549 1.63424,1.0335 2.40665,1.06828 3.39671,0.15294 0.78489,-0.72566 1.04236,-0.75599 0.66443,-0.0783 -0.33936,0.60856 1.15478,2.53034 3.3203,4.2706 4.29651,3.45277 6.32791,8.56017 5.42529,13.64041 -1.11332,6.26616 -13.60425,41.52459 -16.93311,47.79747 C 287.56999,258.93088 286,262.58925 286,263.44467 286,264.3001 285.62223,265 285.16052,265 c -0.69705,0 -3.13127,4.25618 -3.43156,6 -0.0474,0.275 -0.68075,1.09464 -1.40753,1.82143 -0.72679,0.72678 -1.32143,1.94448 -1.32143,2.70599 0,0.76151 -1.2648,3.54187 -2.81067,6.17857 -1.54588,2.63671 -3.10675,5.58151 -3.46862,6.54401 -0.36187,0.9625 -1.12206,1.75 -1.68933,1.75 -0.56726,0 -1.03138,0.62469 -1.03138,1.3882 0,0.76351 -2.025,3.44226 -4.5,5.95277 -2.475,2.51052 -4.5,4.97485 -4.5,5.47629 0,0.50145 -1.35479,2.4352 -3.01065,4.29723 -1.65586,1.86203 -3.29291,4.51051 -3.63789,5.88551 -0.34498,1.375 -0.96,2.95 -1.36671,3.5 -1.86867,2.52702 -8.85234,16.57805 -9.98383,20.08731 -0.69386,2.15198 -1.59331,4.36269 -1.99878,4.91269 -1.59198,2.15947 -11.19843,34.88724 -12.62161,43 -0.38594,2.2 -0.82215,4.61379 -0.96936,5.36397 -0.14721,0.75019 -0.41245,4.91245 -0.58941,9.24947 -0.17697,4.33703 -0.68582,7.88574 -1.13078,7.88603 -0.44496,2.9e-4 -0.5309,0.45053 -0.19098,1.00053 0.77548,1.25476 -0.34934,1.17844 -3.25,-0.22049 z M 85.243769,407.33564 c -0.690926,-0.27855 -1.052192,-0.8366 -0.802812,-1.24011 0.24938,-0.4035 -0.985317,-0.5274 -2.74377,-0.27533 L 78.5,406.27851 82.526224,402.38925 C 89.515939,395.63733 92.59009,389.40321 93.566754,380 c 0.501612,-4.82946 5.040859,-22.37069 6.530586,-25.23643 0.49646,-0.95504 0.90266,-2.55254 0.90266,-3.55 0,-0.99746 0.39643,-2.24107 0.88096,-2.76357 0.48452,-0.5225 2.95768,-7.06145 5.4959,-14.531 l 4.61495,-13.581 0.0864,-15.919 c 0.0747,-13.75718 -0.27621,-20.919 -1.02492,-20.919 -0.11106,0 -0.39779,-1.125 -0.63717,-2.5 -1.54482,-8.8735 -6.2513,-18 -9.28249,-18 C 100.51014,263 100,262.52344 100,261.94098 c 0,-0.58246 -0.394425,-0.81525 -0.876499,-0.51731 -0.482074,0.29794 -0.862994,-1.363 -0.846488,-3.69098 C 98.293519,255.40471 97.717774,252.15 96.99758,250.5 95.6001,247.29831 95.391111,246.52714 95.152314,243.69098 95.068541,242.69602 94.55,242.16008 94,242.5 c -0.55,0.33992 -1,0.0933 -1,-0.54797 0,-0.6413 -0.594795,-0.93776 -1.321766,-0.6588 -1.509849,0.57938 -4.045871,-2.88936 -3.160173,-4.32245 0.322226,-0.52138 -0.112483,-0.67991 -0.966123,-0.35234 C 86.698372,236.94599 86,238.08286 86,239.14484 c 0,1.50487 -0.599727,1.86735 -2.718384,1.64301 -2.301306,-0.24369 -2.820154,0.17244 -3.381686,2.71215 -0.507083,2.29345 -0.691165,1.63189 -0.781615,-2.80902 -0.06507,-3.19496 -0.455815,-5.60107 -0.868315,-5.34692 -0.981908,0.60498 -0.738234,-19.23635 0.275138,-22.40331 1.178447,-3.68286 1.32053,-9.29063 0.269249,-10.62683 -0.593112,-0.75385 -0.469894,-2.0293 0.338126,-3.5 1.717265,-3.12563 1.887224,-4.63181 0.834964,-7.39946 -0.566798,-1.49079 -0.515904,-2.57551 0.139857,-2.9808 0.567002,-0.35042 0.905638,-2.37218 0.752525,-4.4928 -0.153114,-2.12062 0.04078,-4.17483 0.430876,-4.56493 0.390096,-0.39009 0.740893,-2.54676 0.77955,-4.7926 0.03866,-2.24583 0.428065,-4.98333 0.865351,-6.08333 0.437286,-1.1 0.416795,-3.0125 -0.04553,-4.25 -0.485073,-1.29837 -0.456625,-2.25 0.06726,-2.25 1.449795,0 2.242114,-3.75738 1.204538,-5.71223 -0.654444,-1.23301 -0.547479,-2.15894 0.344705,-2.98388 1.038878,-0.96058 1.369107,-0.40436 1.677053,2.82475 0.210898,2.21148 0.11096,4.18928 -0.222085,4.39511 -0.333044,0.20583 -0.675286,2.75969 -0.760537,5.67524 -0.08525,2.91556 -0.381576,9.52973 -0.6585,14.69816 -0.276923,5.16843 -0.216185,9.10983 0.134974,8.75867 0.351159,-0.35116 1.204531,-0.16868 1.896382,0.40551 1.463518,1.21461 1.669711,0.70777 3.889784,-9.56133 0.83233,-3.85 2.061595,-15.18436 2.7317,-25.18747 1.00406,-14.98827 1.49393,-18.25952 2.78492,-18.59713 1.414125,-0.3698 1.398836,1.25387 -0.157136,16.68747 -0.948027,9.40342 -2.196067,20.37801 -2.773423,24.38798 -1.321823,9.18059 -1.378495,16.94303 -0.114323,15.65915 1.589451,-1.61423 12.071962,-27.31231 13.580692,-33.29331 2.07279,-8.21711 5.71215,-33.17583 5.15063,-35.32307 -0.26372,-1.00849 -0.0398,-1.83362 0.49761,-1.83362 0.55154,0 0.87357,-2.53717 0.73938,-5.82527 -0.13076,-3.20389 0.0499,-6.2907 0.40148,-6.85956 0.35158,-0.56886 0.76424,-6.45083 0.91701,-13.071026 0.15278,-6.6202 0.64905,-11.81097 1.10282,-11.535044 0.45377,0.275926 0.73834,-2.133242 0.63239,-5.353708 -0.10596,-3.220466 0.14144,-6.663798 0.54978,-7.651849 0.40833,-0.988051 0.51653,-3.800551 0.24044,-6.25 C 116.45845,63.88775 116.65839,62 117.21935,62 c 0.54796,0 0.82217,-2.186416 0.62716,-5.000622 -0.19058,-2.750342 0.0344,-5.000342 0.5,-5 0.46559,3.42e-4 0.69059,-2.20706 0.5,-4.905338 -0.19058,-2.698278 0.0439,-4.664015 0.52108,-4.368305 0.47718,0.295709 0.6939,-1.283756 0.4816,-3.509923 -0.2123,-2.226168 -0.0402,-3.833873 0.38241,-3.572678 0.66207,0.409187 1.18766,-3.337701 1.03705,-7.393134 -0.0255,-0.6875 0.60513,-1.25 1.40148,-1.25 0.79635,0 1.16979,-0.45 0.82987,-1 -0.33992,-0.55 -0.14148,-1 0.44098,-1 C 124.52344,25 125,24.433246 125,23.740547 c 0,-0.692699 0.92685,-1.838278 2.05966,-2.545731 1.8788,-1.17333 1.96912,-1.117108 1.02859,0.640281 -2.94225,5.497647 -4.13461,12.445275 -5.59504,32.601134 -0.87302,12.048857 -1.76667,22.197226 -1.98589,22.55193 -0.21922,0.354704 -0.47886,4.889974 -0.57697,10.078377 -0.0981,5.188404 -0.60161,12.133462 -1.11889,15.433462 -0.51728,3.3 -1.11784,12.525 -1.33458,20.5 -0.42663,15.69842 -0.91364,20.54067 -2.91666,29 -0.71627,3.025 -1.85745,8.2 -2.53596,11.5 -0.67851,3.3 -1.58141,6.9 -2.00646,8 -0.42504,1.1 -1.33819,4.475 -2.02921,7.5 -1.59952,7.00196 -4.60265,13 -6.50891,13 -0.81383,0 -1.47968,0.44486 -1.47968,0.98857 0,2.28503 -3.567474,5.00857 -6.472241,4.94114 C 90.931353,197.86944 90.784932,197.73699 92.5,197 c 1.311931,-0.56376 1.483948,-0.87596 0.5,-0.90748 -0.825,-0.0264 -2.569611,0.77446 -3.876914,1.77975 -1.933587,1.48689 -2.276706,2.46194 -1.839645,5.22776 0.952029,6.02468 1.339954,7.10971 2.842539,7.9506 0.878289,0.49151 1.567088,2.57142 1.701415,5.13761 0.151289,2.89023 1.206006,5.72257 3.199152,8.591 C 96.661946,227.13282 98,229.89022 98,230.90679 c 0,1.01658 0.680941,2.41345 1.513202,3.10417 0.832258,0.69071 1.453948,1.75831 1.381518,2.37244 -0.35717,3.02857 0.213,5.66806 1.10528,5.1166 0.55,-0.33992 1,-0.12102 1,0.48644 0,0.60746 1.08299,2.18746 2.40664,3.51111 2.67612,2.67612 4.68191,7.65439 6.04462,15.00245 1.02351,5.51901 2.84804,11.97572 4.0974,14.5 1.49371,3.018 2.44403,12.48425 2.40937,24 -0.0141,4.675 -0.0235,9.4 -0.021,10.5 0.0107,4.62447 -3.20618,19.33618 -5.13848,23.5 -1.14856,2.475 -2.75036,6.075 -3.55955,8 -0.80918,1.925 -2.094,4.69443 -2.85514,6.15429 -0.76114,1.45986 -1.38389,3.52898 -1.38389,4.59803 0,1.06906 -1.83676,7.52462 -4.0817,14.34571 -2.723366,8.27477 -3.913861,13.4538 -3.577361,15.56267 0.277385,1.73838 0.240923,3.4241 -0.08103,3.74605 -0.321949,0.32195 -0.728471,2.04964 -0.903383,3.83931 -0.793782,8.12182 -2.5134,11.79332 -6.46874,13.81119 -2.602159,1.32752 -3.638957,2.42762 -3.248032,3.44636 0.610092,1.58987 0.559116,1.62025 -1.395989,0.83203 z m 3.06407,-211.40481 C 88.585546,194.86887 88.378332,194 87.847363,194 87.316395,194 87.160081,193.55 87.5,193 c 0.339919,-0.55 0.168034,-1 -0.381966,-1 -0.55,0 -1.278115,0.45 -1.618034,1 -0.339919,0.55 -0.07173,1 0.595971,1 0.790663,0 0.636125,0.63855 -0.443165,1.83115 -0.911443,1.00713 -1.387193,2.10113 -1.057222,2.4311 1.034457,1.03446 3.1853,-0.31635 3.712255,-2.33142 z m 6.45382,211.36191 c 1.243913,-0.23919 3.043913,-0.23011 4,0.0202 0.956088,0.25029 -0.06166,0.446 -2.261659,0.4349 -2.2,-0.0111 -2.982253,-0.21589 -1.738341,-0.45508 z M 280.20003,185.21371 c -2.29601,-0.36528 -3.96127,-3.19134 -7.4916,-12.71371 -5.04701,-13.61332 -6.09055,-16.03347 -14.01366,-32.5 -7.68945,-15.98093 -9.23946,-21.03096 -10.74255,-35 -1.58993,-14.776003 -0.10976,-54.00439 2.63365,-69.799099 1.61168,-9.278923 7.09393,-21.9211 8.77643,-20.238604 0.68986,0.689863 0.3413,2.227916 -1.08272,4.77755 -1.15507,2.068084 -2.8097,6.235153 -3.67697,9.260153 -2.13886,7.460281 -4.49734,32.451645 -5.23762,55.5 -0.87512,27.24615 0.15694,32.38295 10.887,54.18702 4.55064,9.24714 9.81445,20.30048 11.69736,24.56298 3.24089,7.33665 5.18147,9.86754 4.60055,6 -0.14457,-0.9625 -0.0684,-1.18199 0.16931,-0.48776 0.23768,0.69424 0.7464,1.06803 1.13047,0.83066 0.38408,-0.23737 0.68752,1.51888 0.67432,3.90277 -0.0202,3.64875 0.20409,4.15008 1.41796,3.16935 1.12953,-0.9126 1.27251,-0.8833 0.65991,0.13525 -0.43854,0.72915 -0.0461,2.85117 0.8935,4.83121 1.89612,3.99578 1.86391,4.08485 -1.29534,3.58223 z m -3.07594,-12.48038 c -0.98762,-0.98026 -1.10248,-0.8654 -0.5598,0.5598 0.37553,0.98622 0.93469,1.54122 1.24258,1.23333 0.30789,-0.30789 6.4e-4,-1.11479 -0.68278,-1.79313 z m -144.42176,6.6 C 132.98374,178.6 132.76344,178 132.21278,178 c -0.55067,0 -1.04401,-1.0125 -1.09632,-2.25 -0.63209,-14.95302 -0.93023,-18.63966 -1.59432,-19.71417 -0.4281,-0.69269 -0.37089,-1.54663 0.12714,-1.89763 0.49804,-0.35101 0.88584,-3.71413 0.8618,-7.47361 -0.024,-3.75947 0.24248,-7.01228 0.59227,-7.22846 0.77041,-0.47615 -0.40833,-6.83851 -2.0075,-10.83565 -1.02646,-2.56563 -0.9333,-5.83889 0.40128,-14.10048 0.1777,-1.1 2.36116,-8.075 4.85213,-15.5 5.23307,-15.598528 8.00124,-28.378032 10.62507,-49.051443 1.99929,-15.752628 5.0763,-25.632288 9.90342,-31.797935 1.44224,-1.842157 3.35941,-4.468191 4.26037,-5.83563 1.10522,-1.677438 1.78222,-2.05398 2.08105,-1.157469 0.24361,0.730832 -1.31339,3.550694 -3.46,6.26636 -7.68473,9.721923 -9.34509,15.228641 -12.68824,42.081702 -1.30103,10.450198 -3.63555,22.251276 -6.72597,34 -5.58373,21.227405 -6.67431,31.712595 -3.4765,33.424015 1.72523,0.92332 2.37797,0.60503 4.45829,-2.17396 3.48017,-4.64896 5.7062,-9.28177 8.17351,-17.01063 1.18603,-3.71525 2.46336,-6.44806 2.8385,-6.07292 0.37514,0.37514 0.4145,-0.86011 0.0875,-2.745007 -0.39692,-2.287739 -0.28029,-2.983413 0.35085,-2.092548 0.72788,1.027427 1.0893,0.797304 1.57054,-1 C 153.23124,92.534392 153.02117,91.123603 152,93.5 c -0.82005,1.908356 -0.86265,1.896901 -0.92971,-0.25 -0.0387,-1.2375 0.26721,-2.25 0.67971,-2.25 0.4125,0 0.76242,-1.4625 0.7776,-3.25 0.0357,-4.206418 1.34993,-28.944496 2.08517,-39.25 0.31391,-4.4 1.01122,-9.8 1.54957,-12 1.16547,-4.762782 6.27475,-14.979416 8.90069,-17.798026 1.02729,-1.102674 1.7056,-2.274212 1.50735,-2.603418 -0.19825,-0.329206 0.22848,-1.142531 0.94831,-1.80739 1.89999,-1.754923 1.18006,3.855451 -1.31001,10.208834 -1.07781,2.75 -2.23769,7.966309 -2.57752,11.591797 -0.33984,3.625488 -0.82569,7.900488 -1.07967,9.5 C 162.2975,47.191309 161.83711,55.025 161.52841,63 c -0.59001,15.241827 -2.00121,33.092575 -3.08317,39 -1.05468,5.75844 -5.34285,14.21605 -10.90092,21.5 -4.96968,6.51286 -7.54701,10.68664 -7.07282,11.45388 0.29753,0.48141 -0.0243,1.06555 -0.71527,1.29809 -1.0014,0.33702 -1.00442,0.72801 -0.0149,1.92742 0.68273,0.82754 0.96761,1.77835 0.63307,2.11289 -0.33455,0.33454 -0.77541,3.89314 -0.97971,7.90799 -0.2043,4.01485 -0.64228,10.44973 -0.9733,14.29973 -0.33101,3.85 -0.67374,8.35 -0.76161,10 -0.0879,1.65 -0.72227,3.35986 -1.40977,3.79969 -0.6875,0.43983 -1.25,1.60233 -1.25,2.58333 0,0.98101 -0.6321,1.78365 -1.40466,1.78365 -0.77256,0 -1.17442,-0.6 -0.89301,-1.33334 z M 154.66228,74.75 c -0.27741,-0.6875 -0.50439,-0.125 -0.50439,1.25 0,1.375 0.22698,1.9375 0.50439,1.25 0.27741,-0.6875 0.27741,-1.8125 0,-2.5 z m -69.337623,75.59201 c 0.361895,-0.3619 0.156795,-1.2619 -0.455778,-2 C 84.014973,147.31311 84.133656,147 85.377555,147 86.333333,147 87,147.82181 87,149 c 0,1.1 -0.525,2 -1.166667,2 -0.641666,0 -0.870571,-0.2961 -0.508676,-0.65799 z M 196.60373,107.75 c -0.28535,-2.3375 -0.79036,-12.35 -1.12224,-22.25 -0.33189,-9.9 -0.79937,-19.575 -1.03885,-21.5 -0.23948,-1.925 -0.51594,-9.125 -0.61435,-16 -0.2153,-15.040087 1.83171,-22.474772 7.99295,-29.030239 1.27668,-1.358369 3.94909,-4.59735 5.93869,-7.197737 1.9896,-2.6003872 3.77013,-4.575297 3.95674,-4.3886886 0.56845,0.5684499 -1.46122,5.2168366 -2.9305,6.7114866 -4.13259,4.203947 -9.75778,13.081888 -11.30391,17.840365 -1.53075,4.711128 -1.65505,7.242249 -0.93305,19 0.70798,11.529554 1.32611,61.059603 0.76206,61.063503 -0.1038,7.2e-4 -0.42219,-1.91119 -0.70754,-4.24869 z m 8.13319,-13.993183 c -0.33506,-0.873174 -0.22662,-2.863166 0.24098,-4.422203 0.46761,-1.559038 0.91849,-2.384614 1.00196,-1.834614 0.30158,1.987182 2.96075,-9.514547 3.96925,-17.168194 3.18113,-24.142243 4.31947,-30.852384 6.92694,-40.831806 3.21375,-12.299808 5.05113,-17.502402 7.0184,-19.8728211 2.2347,-2.6926462 3.27664,-0.6761941 1.1754,2.2747281 -4.57996,6.431957 -8.74224,22.405944 -12.53274,48.098093 -0.85202,5.775 -2.01682,13.65 -2.58844,17.5 -1.32245,8.90698 -4.37651,18.433405 -5.21175,16.256817 z m 53.34203,-17.34015 c 0.048,-1.164943 0.28494,-1.4019 0.60416,-0.604167 0.28887,0.721875 0.25335,1.584375 -0.0789,1.916667 -0.33229,0.332291 -0.56864,-0.258334 -0.52522,-1.3125 z M 170.4917,11.174965 C 170.86293,10.803734 171.64877,10.5 172.238,10.5 c 0.58924,0 1.19297,-0.8287342 1.34164,-1.8416315 0.14866,-1.0128973 0.53923,-2.1105724 0.86794,-2.439278 0.3287,-0.3287056 0.44906,0.3759322 0.26747,1.5658618 -0.39223,2.5701287 -1.22313,3.5255747 -3.33563,3.8356237 -0.85947,0.126144 -1.25895,-0.07438 -0.88772,-0.445611 z m 73.3208,-6.858079 c 0.72187,-0.2888706 1.58437,-0.2533443 1.91667,0.078947 0.33229,0.3322917 -0.25834,0.5686404 -1.3125,0.5252193 -1.16495,-0.047984 -1.4019,-0.2849403 -0.60417,-0.6041663 z M 192.25,1.2837456 c 1.5125,-0.2291247 3.9875,-0.2291247 5.5,0 1.5125,0.2291246 0.275,0.4165902 -2.75,0.4165902 -3.025,0 -4.2625,-0.1874656 -2.75,-0.4165902 z"
         id="path11" />
      <path
         style="fill:#f9c716"
         d="m 220.26903,408.30701 c 0.97297,-0.25354 2.32297,-0.23687 3,0.0371 0.67703,0.27393 -0.11903,0.48137 -1.76903,0.46099 -1.65,-0.0204 -2.20394,-0.2445 -1.23097,-0.49804 z M 88.25,407.31067 c 0.9625,-0.25152 2.5375,-0.25152 3.5,0 0.9625,0.25153 0.175,0.45733 -1.75,0.45733 -1.925,0 -2.7125,-0.2058 -1.75,-0.45733 z m 137.25,10e-6 c 0.55,-0.44588 1.16261,-4.36832 1.36136,-8.71654 0.19875,-4.34822 0.46398,-8.39822 0.58941,-9 0.12543,-0.60178 0.54382,-2.89414 0.92976,-5.09414 1.42318,-8.11276 11.02963,-40.84053 12.62161,-43 0.40547,-0.55 1.30492,-2.76071 1.99878,-4.91269 1.13149,-3.50926 8.11516,-17.56029 9.98383,-20.08731 0.40671,-0.55 1.02173,-2.125 1.36671,-3.5 0.34498,-1.375 1.98203,-4.02348 3.63789,-5.88551 1.65586,-1.86203 3.01065,-3.79578 3.01065,-4.29723 0,-0.50144 2.025,-2.96577 4.5,-5.47629 2.475,-2.51051 4.5,-5.18926 4.5,-5.95277 0,-0.76351 0.46412,-1.3882 1.03138,-1.3882 0.56727,0 1.32746,-0.7875 1.68933,-1.75 0.36187,-0.9625 1.92274,-3.9073 3.46862,-6.54401 1.54587,-2.6367 2.81067,-5.41706 2.81067,-6.17857 0,-0.76151 0.7875,-2.17206 1.75,-3.13456 0.9625,-0.9625 1.69841,-2.00715 1.63535,-2.32143 C 282.16301,268.9633 284.33179,265 285.16052,265 285.62223,265 286,264.3001 286,263.44467 c 0,-0.85542 1.56999,-4.51379 3.48886,-8.1297 3.37382,-6.35761 15.85937,-41.64388 16.94285,-47.88339 0.29306,-1.68762 0.12775,-4.48087 -0.36736,-6.20721 -0.84095,-2.93221 -0.77396,-3.05997 1.01773,-1.94104 1.05485,0.65877 1.91792,1.98952 1.91792,2.95722 0,0.9677 0.675,1.75945 1.5,1.75945 0.825,0 1.5,0.675 1.5,1.5 0,0.825 0.47656,1.5 1.05902,1.5 0.58246,0 0.7809,0.45 0.44098,1 -0.33992,0.55 -0.11492,1 0.5,1 0.61492,0 0.83992,0.45 0.5,1 -0.33992,0.55 -0.11492,1 0.5,1 0.61492,0 0.83992,0.45 0.5,1 -0.33992,0.55 -0.14148,1 0.44098,1 0.58246,0 1.00573,0.3375 0.9406,0.75 -0.0651,0.4125 -0.0307,0.975 0.0765,1.25 1.32732,3.40456 1.89296,18 0.69758,18 -0.48547,0 -0.68802,1.32623 -0.45011,2.94719 0.2379,1.62095 0.064,2.71939 -0.3865,2.44098 -0.45048,-0.27841 -0.85069,-1.94215 -0.88935,-3.69719 C 315.891,232.93594 315.55355,230.825 315.1797,230 314.37866,228.23222 312,227.5283 312,229.05902 c 0,0.58246 -0.39901,0.81241 -0.88669,0.51101 -1.08036,-0.6677 -3.03986,1.55273 -3.59874,4.07794 -0.22544,1.01862 -3.30362,8.82703 -6.8404,17.35203 -6.65982,16.05276 -12.65401,27.95235 -16.46832,32.69272 -1.21322,1.50778 -2.20585,3.11517 -2.20585,3.57197 0,0.45681 -3.64771,5.63033 -8.10603,11.49671 -4.45831,5.86637 -8.49717,11.69494 -8.97524,12.95237 -0.47808,1.25743 -1.27049,2.28623 -1.76092,2.28623 -0.49044,0 -2.91895,3.0375 -5.39671,6.75 -9.78465,14.66066 -12.53168,21.10935 -17.78476,41.75 -1.53973,6.05 -3.74764,14.28689 -4.90646,18.3042 -1.15881,4.01732 -2.35943,11.44065 -2.66803,16.4963 -0.30861,5.05564 -0.63777,9.25368 -0.73147,9.32898 -0.0937,0.0753 -1.74538,0.44176 -3.67038,0.81438 -1.925,0.37262 -3.05,0.31269 -2.5,-0.13318 z M 80.269032,406.30701 c 0.972967,-0.25354 2.322967,-0.23687 3,0.0371 0.677032,0.27393 -0.119032,0.48137 -1.769032,0.46099 -1.65,-0.0204 -2.203936,-0.2445 -1.230968,-0.49804 z M 77.361111,403.25 c 0.07639,-0.9625 0.50356,-2.01835 0.94927,-2.34633 0.445709,-0.32799 0.895709,-2.19502 1,-4.14896 0.10429,-1.95394 0.475105,-3.37868 0.824031,-3.16609 0.949228,0.57835 3.027864,-8.51703 2.238394,-9.79442 -0.375003,-0.60677 -0.248483,-0.8354 0.281156,-0.50806 1.170785,0.72358 3.649335,-7.98638 2.706676,-9.51163 -0.425906,-0.68913 -0.19665,-0.79119 0.629842,-0.28039 0.977884,0.60436 1.17562,0.15511 0.798965,-1.81523 -0.275292,-1.4401 -0.170326,-2.41429 0.233258,-2.16486 0.975588,0.60295 2.149477,-5.42642 1.31833,-6.77124 -0.405982,-0.6569 -0.162141,-0.75026 0.649447,-0.24867 0.979522,0.60537 1.174827,0.15096 0.79318,-1.8455 C 89.505186,359.19188 89.717426,358 90.255303,358 c 0.537878,0 0.748247,-0.87842 0.467486,-1.95205 -0.28076,-1.07363 -0.107803,-2.08628 0.384348,-2.25033 0.492152,-0.16405 1.006881,-2.09813 1.143842,-4.29795 0.136962,-2.19982 0.590631,-4.25377 1.008155,-4.56433 0.417523,-0.31057 0.867523,-2.44573 1,-4.74482 0.132476,-2.29909 0.627599,-4.18249 1.100272,-4.18534 0.472673,-0.003 0.679219,-1.54861 0.45899,-3.43503 -0.229281,-1.96396 -0.002,-3.1836 0.531885,-2.85366 0.554164,0.34249 0.728435,-1.54548 0.429667,-4.65482 -0.291806,-3.03687 -0.147769,-4.67118 0.343397,-3.89633 0.512556,0.80858 0.852065,-1.20989 0.861342,-5.12092 0.01272,-5.36271 -0.603905,-7.77512 -3.642381,-14.25 C 92.330574,297.50749 90.319697,294 89.873691,294 c -0.446007,0 -0.574165,-0.61698 -0.284796,-1.37106 0.289369,-0.75408 -0.153325,-2.05051 -0.983766,-2.88095 -0.83044,-0.83044 -1.300413,-1.71937 -1.044383,-1.9754 0.256029,-0.25603 -0.298998,-2.2221 -1.233392,-4.36905 -0.934395,-2.14695 -1.620505,-4.22543 -1.524689,-4.61885 0.09582,-0.39342 -0.33424,-1.96842 -0.955679,-3.5 C 83.225547,273.75311 82.58404,271.825 82.421415,271 c -0.162626,-0.825 -0.548973,-2.7375 -0.858549,-4.25 -0.309576,-1.5125 -0.744374,-3.83977 -0.966216,-5.17171 -0.221843,-1.33195 -0.707598,-3.80695 -1.079455,-5.5 -0.489831,-2.23019 -0.309826,-3.08251 0.65335,-3.0936 1.104791,-0.0127 1.104538,-0.1579 -0.0015,-0.85905 -1.53617,-0.97383 -3.170756,-16.47588 -2.965659,-28.12564 0.12565,-7.13707 0.166385,-6.9919 0.841789,3 0.390363,5.775 0.818133,12.525 0.950601,15 0.217012,4.05458 0.306506,4.20305 0.904152,1.5 0.561532,-2.53971 1.08038,-2.95584 3.381686,-2.71215 C 85.400273,241.01219 86,240.64971 86,239.14484 c 0,-1.06198 0.698372,-2.19885 1.551938,-2.5264 0.85364,-0.32757 1.288349,-0.16904 0.966123,0.35234 -0.885698,1.43309 1.650324,4.90183 3.160173,4.32245 0.726971,-0.27896 1.321766,0.0175 1.321766,0.6588 0,0.6413 0.45,0.88789 1,0.54797 0.55,-0.33992 1.068541,0.19602 1.152314,1.19098 0.238797,2.83616 0.447786,3.60733 1.845266,6.80902 0.720194,1.65 1.295939,4.90471 1.279433,7.23269 -0.01651,2.32798 0.364414,3.98892 0.846488,3.69098 0.482074,-0.29794 0.876499,-0.0652 0.876499,0.51731 0,0.58246 0.51014,1.05902 1.13365,1.05902 3.03119,0 7.73767,9.1265 9.28249,18 0.23938,1.375 0.52611,2.5 0.63717,2.5 0.74871,0 1.09959,7.16182 1.02492,20.919 l -0.0864,15.919 -4.61495,13.581 c -2.53822,7.46955 -5.01138,14.0085 -5.4959,14.531 -0.48453,0.5225 -0.88096,1.76611 -0.88096,2.76357 0,0.99746 -0.4062,2.59496 -0.90266,3.55 -1.489727,2.86574 -6.028974,20.40697 -6.530586,25.23643 -0.937088,9.02218 -4.014948,15.50905 -10.31984,21.75 -3.612982,3.57634 -6.100913,4.21039 -5.885803,1.5 z M 78.309869,207.5 c 0.0056,-3.3 0.192301,-4.52944 0.414862,-2.73209 0.222562,1.79735 0.217969,4.49735 -0.0102,6 -0.228174,1.50265 -0.41027,0.0321 -0.404657,-3.26791 z M 79.272364,194 c 0,-2.475 0.195016,-3.4875 0.433369,-2.25 0.238353,1.2375 0.238353,3.2625 0,4.5 -0.238353,1.2375 -0.433369,0.225 -0.433369,-2.25 z M 285.5704,192.8296 c -0.84671,-2.01374 -1.04486,-4.17525 -0.54312,-5.92472 0.43446,-1.51489 0.50302,-3.04124 0.15236,-3.39191 -0.35067,-0.35067 0.59046,-0.17068 2.09139,0.39998 1.50093,0.57065 2.72897,0.73768 2.72897,0.37117 0,-0.36651 0.66069,0.20713 1.4682,1.27475 0.8075,1.06762 1.4825,1.51762 1.5,1 0.0363,-1.07515 2.95144,2.53394 3,3.71418 0.0175,0.42518 -0.9807,0.13136 -2.2182,-0.65294 -1.58161,-1.00238 -2.95171,-1.15501 -4.61214,-0.51379 -1.92048,0.74164 -2.28007,1.4714 -1.92319,3.90294 0.5653,3.85165 0.026,3.79272 -1.64427,-0.17966 z M 92.039358,189.5 c -0.01334,-2.75 0.399684,-7.7 0.917826,-11 0.518142,-3.3 1.655673,-13.425 2.527848,-22.5 1.916297,-19.9391 2.125584,-21 4.14276,-21 2.291288,0 1.344878,13.83548 -2.686089,39.26792 -1.02585,6.47235 -1.580927,12.50867 -1.233504,13.41404 0.42048,1.09575 0.244344,1.40674 -0.526806,0.93015 -0.715449,-0.44217 -0.963213,-0.20712 -0.647873,0.61465 0.280836,0.73184 -0.160007,2.21772 -0.979651,3.30193 -1.385117,1.83222 -1.491973,1.61854 -1.514511,-3.02869 z M 298,191.5 c -0.71755,-0.86459 -0.81474,-1.5 -0.22943,-1.5 0.5585,0 1.27447,0.675 1.59106,1.5 0.31658,0.825 0.41982,1.5 0.22943,1.5 -0.19039,0 -0.90637,-0.675 -1.59106,-1.5 z m -217.747817,-7 c 0.0111,-2.2 0.215885,-2.98225 0.455078,-1.73834 0.239193,1.24391 0.230112,3.04391 -0.02018,4 C 80.436788,187.71775 80.241084,186.7 80.252183,184.5 Z m 200.040507,-5.48875 c -0.28604,-1.09382 -0.8539,-1.78243 -1.26192,-1.53026 -0.40802,0.25216 -0.54663,-0.7654 -0.30802,-2.26125 0.30156,-1.89056 0.14751,-2.31308 -0.5053,-1.38589 -0.75921,1.07831 -1.05937,1.02047 -1.56683,-0.30194 -0.36687,-0.95604 -0.21692,-1.38191 0.36083,-1.02483 0.5437,0.33602 0.98855,-0.0765 0.98855,-0.91668 0,-0.84259 -0.58296,-1.30393 -1.29998,-1.02878 -0.85276,0.32723 -2.48242,-2.17773 -4.73707,-7.28138 -1.89039,-4.27913 -7.16032,-15.34608 -11.71096,-24.59322 -10.73006,-21.80407 -11.76212,-26.94087 -10.887,-54.18702 0.74028,-23.048355 3.09876,-48.039719 5.23762,-55.5 0.86727,-3.025 2.51346,-7.177053 3.65821,-9.226784 1.73018,-3.097961 1.88738,-4.152528 0.93171,-6.25 C 258.56022,12.135447 258.28119,11 258.57247,11 c 1.0433,0 3.42527,6.990023 3.31153,9.717881 -0.0892,2.140364 -0.2356,2.320776 -0.63447,0.782119 -1.03575,-3.99546 -5.20877,14.66895 -5.81311,26 -0.32268,6.05 -1.27266,15.725 -2.11106,21.5 -3.3639,23.170871 -2.15766,44.01731 3.23293,55.872 2.21063,4.8615 2.60903,5.24162 4.19224,4 1.59178,-1.24833 1.62357,-1.21162 0.3527,0.40732 -1.22535,1.56093 -1.12044,2.07346 0.85476,4.17597 1.23835,1.31816 1.95284,2.87997 1.58776,3.47068 -0.36508,0.59072 -0.21755,1.07403 0.32785,1.07403 0.54539,0 1.27935,0.90653 1.63101,2.01452 0.35166,1.10799 1.12651,1.71346 1.72189,1.34549 0.62057,-0.38353 0.79614,-0.20566 0.41144,0.4168 -0.67619,1.09409 2.21464,8.22319 3.33447,8.22319 0.33109,0 0.6752,0.97201 0.76469,2.16002 0.0895,1.18802 0.74775,2.53112 1.46281,2.98469 0.71505,0.45357 0.90749,0.83156 0.42765,0.83998 -0.47985,0.008 -0.31225,0.69031 0.37244,1.51531 0.68469,0.825 0.95442,1.5 0.59939,1.5 -0.35502,0 0.0916,1.125 0.99257,2.5 1.29829,1.98144 1.35492,2.50318 0.27305,2.51531 -1.09797,0.0123 -1.0827,0.19394 0.0781,0.92835 1.33584,0.84518 6.39626,16.05634 5.3416,16.05634 -0.25955,0 -0.70594,-0.89494 -0.99198,-1.98875 z m -3.60958,-11.19875 c -0.31922,-0.79773 -0.55618,-0.56078 -0.60416,0.60417 -0.0434,1.05416 0.19293,1.64479 0.52522,1.3125 0.33229,-0.3323 0.36781,-1.1948 0.0789,-1.91667 z M 81.272364,175 c 0,-2.475 0.195016,-3.4875 0.433369,-2.25 0.238353,1.2375 0.238353,3.2625 0,4.5 -0.238353,1.2375 -0.433369,0.225 -0.433369,-2.25 z m 0.979819,-8.5 c 0.0111,-2.2 0.215885,-2.98225 0.455078,-1.73834 0.239193,1.24391 0.230112,3.04391 -0.02018,4 C 82.436788,169.71775 82.241084,168.7 82.252183,166.5 Z m 1,-8 c 0.0111,-2.2 0.215885,-2.98225 0.455078,-1.73834 0.239193,1.24391 0.230112,3.04391 -0.02018,4 C 83.436788,161.71775 83.241084,160.7 83.252183,158.5 Z m 0.97982,-7.5 c 0,-1.925 0.205795,-2.7125 0.457323,-1.75 0.251527,0.9625 0.251527,2.5375 0,3.5 -0.251528,0.9625 -0.457323,0.175 -0.457323,-1.75 z m 23.846947,-1.58333 c 0.048,-1.16495 0.28494,-1.4019 0.60416,-0.60417 0.28887,0.72187 0.25335,1.58437 -0.0789,1.91667 -0.3323,0.33229 -0.56864,-0.25834 -0.52522,-1.3125 z M 85,145.55902 c 0,-0.79254 0.408034,-1.69316 0.906741,-2.00138 0.498708,-0.30822 0.671224,0.34022 0.383369,1.44098 C 85.679497,147.33361 85,147.62877 85,145.55902 Z m 24.07895,-3.14235 c 0.048,-1.16495 0.28494,-1.4019 0.60416,-0.60417 0.28887,0.72187 0.25335,1.58437 -0.0789,1.91667 -0.3323,0.33229 -0.56864,-0.25834 -0.52522,-1.3125 z M 87,141.62244 c 0,-0.20765 0.7875,-0.99515 1.75,-1.75 1.586056,-1.24387 1.621426,-1.2085 0.377555,0.37756 C 87.821186,141.91575 87,142.44548 87,141.62244 Z m 4,-3.18362 c 0,-0.2131 1.35,-1.08557 3,-1.93882 1.65,-0.85325 3,-1.18846 3,-0.74492 0,0.44355 -1.35,1.31601 -3,1.93882 -1.65,0.6228 -3,0.95802 -3,0.74492 z M 110.15789,135 c 0,-1.375 0.22698,-1.9375 0.50439,-1.25 0.27741,0.6875 0.27741,1.8125 0,2.5 -0.27741,0.6875 -0.50439,0.125 -0.50439,-1.25 z m 1.07411,-8 c 0,-1.925 0.2058,-2.7125 0.45733,-1.75 0.25152,0.9625 0.25152,2.5375 0,3.5 -0.25153,0.9625 -0.45733,0.175 -0.45733,-1.75 z m 23.35833,-0.31029 c -2.82867,-2.06838 -1.62421,-12.70185 3.75878,-33.184125 3.08267,-11.729535 5.42291,-23.56687 6.72182,-34 3.35428,-26.942432 4.9918,-32.344964 12.7966,-42.218782 2.20621,-2.791061 3.73855,-5.347389 3.40521,-5.680729 C 160.9394,11.272733 161.41667,11 162.33333,11 c 2.47922,0 2.07085,1.228609 -2.20022,6.619372 C 152.21843,27.608958 149.80087,34.960245 147.51115,56 c -0.8679,7.975 -3.58046,24.85 -6.02791,37.5 -4.20729,21.74603 -4.66175,27.37505 -2.42751,30.06715 0.61428,0.74017 0.31138,1.69564 -0.87912,2.77302 -1.51574,1.37173 -2.10925,1.42957 -3.58628,0.34954 z M 112.30987,117.5 c 0.006,-3.3 0.1923,-4.52944 0.41486,-2.73209 0.22256,1.79735 0.21797,4.49735 -0.0102,6 -0.22818,1.50265 -0.41027,0.0321 -0.40466,-3.26791 z m 85.49881,-7.5 c -0.14022,-1.375 -0.28196,-12.175 -0.31499,-24 -0.033,-11.825 -0.44647,-27.604166 -0.91875,-35.064813 -0.74677,-11.796802 -0.62851,-14.273225 0.90732,-19 1.54613,-4.758477 7.17132,-13.636418 11.30391,-17.840365 0.75973,-0.772848 1.80364,-2.51593 2.31979,-3.873517 0.73463,-1.9322205 0.55354,-2.7678412 -0.83375,-3.8472756 -1.6952,-1.3190165 -1.69496,-1.3519909 0.006,-0.7588341 0.97778,0.3410565 2.24266,1.4887434 2.81085,2.5504152 0.83853,1.5668057 0.26351,3.0982495 -3.05351,8.1323505 C 207.7875,19.709083 204.49813,25.425 202.72542,29 c -3.11782,6.287649 -3.20861,6.826693 -2.77919,16.5 0.65538,14.763272 0.33145,28.320126 -1.04131,43.579389 -1.07265,11.923431 -1.03187,13.959781 0.33449,16.698691 1.32424,2.65451 1.35257,3.38771 0.19015,4.92061 -1.27604,1.68274 -1.38273,1.63674 -1.62088,-0.69869 z m -84.48861,-6 c 0,-3.575 0.1815,-5.0375 0.40333,-3.25 0.22182,1.7875 0.22182,4.7125 0,6.5 -0.22183,1.7875 -0.40333,0.325 -0.40333,-3.25 z m 36.3466,-2.66667 C 149.3,100.96667 149,100.20167 149,99.633333 c 0,-0.626604 0.46577,-0.567562 1.18333,0.15 0.65084,0.650837 0.95084,1.415837 0.66667,1.699997 -0.28417,0.28417 -0.81667,0.21667 -1.18333,-0.15 z m 1.0019,-4.754649 C 149.75767,94.204927 149.82628,93.774604 151,94.5 c 0.55,0.339919 1.03553,-0.196024 1.07895,-1.190983 0.0434,-0.994959 0.28127,-1.32046 0.52856,-0.723335 0.24729,0.597126 0.0626,2.131837 -0.41038,3.410469 -0.75016,2.02788 -0.94538,2.102277 -1.52856,0.58253 z M 114.29966,92 c 0,-3.025 0.18747,-4.2625 0.41659,-2.75 0.22913,1.5125 0.22913,3.9875 0,5.5 -0.22912,1.5125 -0.41659,0.275 -0.41659,-2.75 z M 151,89.940983 c 0,-0.582459 0.45,-0.780902 1,-0.440983 0.55,0.339919 1,0.816476 1,1.059017 C 153,90.801558 152.55,91 152,91 c -0.55,0 -1,-0.476558 -1,-1.059017 z m 53.07895,-0.524316 c 0.048,-1.164943 0.28494,-1.4019 0.60416,-0.604167 0.28887,0.721875 0.25335,1.584375 -0.0789,1.916667 -0.3323,0.332291 -0.56864,-0.258334 -0.52522,-1.3125 z m 1.45362,-2.567638 c -0.3688,-0.908035 -0.1895,-4.253182 0.39844,-7.43366 C 206.51896,76.234891 207,71.952828 207,69.899674 c 0,-2.053154 0.45024,-3.883087 1.00053,-4.066517 0.55029,-0.18343 1.11279,-3.818753 1.25,-8.078496 0.13721,-4.259743 0.63804,-7.747164 1.11297,-7.749824 0.47492,-0.0027 0.66697,-1.343853 0.42677,-2.980429 -0.24019,-1.636575 -0.0527,-3.103609 0.41673,-3.260074 0.46939,-0.156465 0.95234,-2.414319 1.07322,-5.017452 0.12088,-2.603133 0.58384,-4.7361 1.0288,-4.739926 0.44496,-0.0038 0.54093,-0.440725 0.21327,-0.970886 -0.73488,-1.18907 1.97858,-11.921521 4.18267,-16.543544 C 219.28224,13.184918 222,11.02625 222,13.081045 c 0,0.560051 -0.68264,2.338348 -1.51697,3.951772 -0.83433,1.613423 -2.66669,7.778576 -4.0719,13.70034 -2.32958,9.81718 -3.42272,16.515239 -6.46261,39.598649 -1.3967,10.605887 -3.54828,18.653536 -4.41595,16.517223 z M 115.30987,80.5 c 0.006,-3.3 0.1923,-4.529441 0.41486,-2.732091 0.22256,1.79735 0.21797,4.49735 -0.0102,6 C 115.48635,85.270559 115.30426,83.8 115.30987,80.5 Z m 36.84802,2.5 c 0,-1.375 0.22698,-1.9375 0.50439,-1.25 0.27741,0.6875 0.27741,1.8125 0,2.5 -0.27741,0.6875 -0.50439,0.125 -0.50439,-1.25 z m 2,-7 c 0,-1.375 0.22698,-1.9375 0.50439,-1.25 0.27741,0.6875 0.27741,1.8125 0,2.5 -0.27741,0.6875 -0.50439,0.125 -0.50439,-1.25 z m 103.92106,-2.583333 c 0.048,-1.164943 0.28494,-1.4019 0.60416,-0.604167 0.28887,0.721875 0.25335,1.584375 -0.0789,1.916667 -0.33229,0.332291 -0.56864,-0.258334 -0.52522,-1.3125 z M 116.28601,68.5 c 0.008,-2.75 0.20172,-3.756313 0.43157,-2.23625 0.22986,1.520062 0.22371,3.770062 -0.0136,5 C 116.46657,72.493687 116.27851,71.25 116.28601,68.5 Z M 153.232,65 c 0,-1.925 0.2058,-2.7125 0.45733,-1.75 0.25152,0.9625 0.25152,2.5375 0,3.5 C 153.4378,67.7125 153.232,66.925 153.232,65 Z m -35.94599,-7.5 c 0.008,-2.75 0.20172,-3.756313 0.43157,-2.23625 0.22986,1.520062 0.22371,3.770062 -0.0136,5 C 117.46657,61.493687 117.27851,60.25 117.28601,57.5 Z m 0.81703,-8.209152 C 117.96085,44.862502 120.06285,30.829926 121.14249,29 c 0.61142,-1.036323 0.71353,-0.727205 0.33031,1 -0.30507,1.375 -1.16489,7 -1.9107,12.5 -0.74581,5.5 -1.40239,8.555882 -1.45906,6.790848 z M 154.25218,46.5 c 0.0111,-2.2 0.21589,-2.982253 0.45508,-1.738341 0.23919,1.243913 0.23011,3.043913 -0.0202,4 C 154.43679,49.717747 154.24108,48.7 154.25218,46.5 Z M 122,26.269132 c 0,-0.646734 2.3625,-3.584406 5.25,-6.52816 2.8875,-2.943754 3.62901,-3.527236 1.6478,-1.296626 -1.98121,2.23061 -4.34371,5.168282 -5.25,6.52816 C 122.74151,26.332385 122,26.915866 122,26.269132 Z M 135.44113,12.555166 C 136.50875,11.699825 137.82125,11 138.3578,11 c 1.27054,0 0.70323,0.4619 -2.3578,1.919712 -2.35727,1.122645 -2.38918,1.101832 -0.55887,-0.364546 z M 169,12.340981 c 0,-0.545794 1.2375,-2.083294 2.75,-3.416667 L 174.5,6.5 172,9.5 c -1.375,1.65 -2.6125,3.1875 -2.75,3.416667 -0.1375,0.229166 -0.25,-0.02989 -0.25,-0.575686 z M 147.26375,9.2824188 c 1.52006,-0.2298544 3.77006,-0.2237119 5,0.01365 1.22994,0.2373619 -0.0137,0.4254246 -2.76375,0.4179171 -2.75,-0.00751 -3.75631,-0.2017128 -2.23625,-0.4315671 z M 224,8.5703675 c 0,-0.275 0.9,-0.9816654 2,-1.5703675 1.1,-0.5887021 2,-0.8453675 2,-0.5703675 0,0.275 -0.9,0.9816654 -2,1.5703675 -1.1,0.5887021 -2,0.8453675 -2,0.5703675 z"
         id="path10" />
      <path
         style="fill:#eeb503"
         d="m 230.25,407.30932 c 1.10864,-0.28408 1.76127,-1.43079 1.78076,-3.12887 0.0976,-8.50235 1.20989,-17.03832 3.05241,-23.42417 1.15151,-3.99096 3.35344,-12.20628 4.89317,-18.25628 5.25308,-20.64065 8.00011,-27.08934 17.78476,-41.75 2.47776,-3.7125 4.90627,-6.75 5.39671,-6.75 0.49043,0 1.28284,-1.0288 1.76092,-2.28623 0.47807,-1.25743 4.51693,-7.086 8.97524,-12.95237 C 278.35229,292.89502 282,287.7215 282,287.26469 c 0,-0.4568 0.99263,-2.06419 2.20585,-3.57197 3.81431,-4.74037 9.8085,-16.63996 16.46832,-32.69272 3.53678,-8.525 6.61496,-16.33341 6.8404,-17.35203 0.55888,-2.52521 2.51838,-4.74564 3.59874,-4.07794 0.48768,0.3014 0.88669,0.0714 0.88669,-0.51101 0,-1.53072 2.37866,-0.8268 3.17971,0.94098 0.37385,0.825 0.76459,3.075 0.86832,5 l 0.1886,3.5 0.76337,-3 c 0.59648,-2.34412 0.78924,-2.51937 0.88169,-0.80162 0.29029,5.3938 -9.38067,30.40828 -19.69177,50.93385 -2.79948,5.57273 -9.7893,17.96393 -15.53295,27.536 -12.3404,20.56588 -14.9578,26.0526 -22.70538,47.59596 -6.08474,16.91961 -12.3897,31.94091 -16.2193,38.64179 -2.92984,5.12653 -6.50848,7.67044 -11.31887,8.04612 -2.15238,0.1681 -3.12592,0.10385 -2.16342,-0.14278 z M 78.085953,400.11159 c -0.04727,-0.76362 1.918976,-8.18862 4.369444,-16.5 2.450469,-8.31137 5.119125,-17.36159 5.930348,-20.11159 0.811224,-2.75 1.506295,-4.36929 1.544603,-3.59843 0.03831,0.77087 -2.23475,9.32087 -5.051242,19 -6.421283,22.06734 -6.68844,22.90147 -6.793153,21.21002 z m 11.992994,-43.69492 c 0.04798,-1.16495 0.284941,-1.4019 0.604167,-0.60417 0.288871,0.72187 0.253344,1.58438 -0.07895,1.91667 -0.332292,0.33229 -0.568641,-0.25834 -0.52522,-1.3125 z M 91.19936,352.5 c 0,-1.1 0.360288,-3.125 0.80064,-4.5 0.633973,-1.97958 0.80064,-2.08367 0.80064,-0.5 0,1.1 -0.360288,3.125 -0.80064,4.5 -0.633973,1.97958 -0.80064,2.08367 -0.80064,0.5 z m 1.958535,-9.5 c 0,-1.375 0.226973,-1.9375 0.504386,-1.25 0.277412,0.6875 0.277412,1.8125 0,2.5 -0.277413,0.6875 -0.504386,0.125 -0.504386,-1.25 z m 0.921052,-4.58333 c 0.04798,-1.16495 0.284941,-1.4019 0.604167,-0.60417 0.288871,0.72187 0.253344,1.58438 -0.07895,1.91667 -0.332292,0.33229 -0.568641,-0.25834 -0.52522,-1.3125 z M 95.524245,332 c 0.251929,-2.475 0.723062,-8.55 1.046962,-13.5 0.578271,-8.83743 0.523743,-9.13347 -3.018746,-16.38907 -1.98421,-4.06399 -3.442488,-7.55424 -3.240617,-7.75611 0.20187,-0.20187 2.077711,3.27835 4.168535,7.73383 3.793966,8.0848 3.800112,8.119 3.101468,17.2561 C 97.196829,324.38014 96.4733,330.3 95.974004,332.5 l -0.907811,4 z m -6.900706,-40.53866 c -0.964979,-2.51469 -0.680311,-3.16355 0.498534,-1.13634 0.58369,1.00375 0.850598,2.03566 0.593129,2.29313 -0.257468,0.25747 -0.748717,-0.26309 -1.091663,-1.15679 z m -2,-5 c -0.964979,-2.51469 -0.680311,-3.16355 0.498534,-1.13634 0.58369,1.00375 0.850598,2.03566 0.593129,2.29313 -0.257468,0.25747 -0.748717,-0.26309 -1.091663,-1.15679 z M 318.25218,227.5 c 0.0111,-2.2 0.21589,-2.98225 0.45508,-1.73834 0.23919,1.24391 0.23011,3.04391 -0.0202,4 -0.25029,0.95609 -0.446,-0.0617 -0.4349,-2.26166 z M 303,195.5 c -2.42903,-2.475 -4.19142,-4.5 -3.91642,-4.5 0.275,0 2.48739,2.025 4.91642,4.5 2.42903,2.475 4.19142,4.5 3.91642,4.5 -0.275,0 -2.48739,-2.025 -4.91642,-4.5 z m -8.12756,-7.25 c -1.24387,-1.58606 -1.2085,-1.62143 0.37756,-0.37756 0.9625,0.75485 1.75,1.54235 1.75,1.75 0,0.82304 -0.82119,0.29331 -2.12756,-1.37244 z m -11.63536,-3.21409 C 282.67365,182.81616 282.40427,181 282.63845,181 c 0.23418,0 1.98633,0.65204 3.89367,1.44897 3.81462,1.59385 4.84913,3.02668 1.17735,1.63067 -1.99651,-0.75907 -2.31778,-0.54159 -2.50283,1.69424 -0.32243,3.8959 -0.84285,3.70091 -1.96956,-0.73797 z M 95.405771,184 c 4.871429,-29.18822 6.631919,-47.74064 4.646659,-48.9676 -0.672876,-0.41586 1.22649,-1.62693 4.54057,-2.89516 3.13353,-1.19913 5.83992,-2.03766 6.01418,-1.86339 0.54482,0.54482 -3.55552,28.03341 -4.73172,31.72142 -1.36362,4.27564 -9.767099,24.23199 -10.51574,24.97249 C 95.063771,187.26049 95.084494,185.925 95.405771,184 Z M 267.49444,143.98836 C 265.92024,140.69476 264.27913,138 263.84752,138 c -0.43161,0 -0.4974,-0.74882 -0.1462,-1.66404 0.46365,-1.20826 0.27578,-1.43984 -0.68589,-0.8455 -0.8298,0.51285 -1.08412,0.42969 -0.68095,-0.22264 0.35392,-0.57267 -0.047,-1.61429 -0.891,-2.31473 -0.84397,-0.70043 -1.29417,-1.89979 -1.00044,-2.66524 0.29937,-0.78015 0.0899,-1.11726 -0.47656,-0.76714 -1.62995,1.00737 -5.72808,-9.32276 -7.34745,-18.52071 -1.78063,-10.11384 -1.49996,-26.802837 0.70633,-42 0.8384,-5.775 1.78838,-15.45 2.11106,-21.5 0.39033,-7.318429 1.42433,-13.84485 3.08946,-19.5 l 2.50277,-8.5 -0.58459,13 c -0.32153,7.15 -0.9836,20.2 -1.47126,29 -0.48767,8.8 -0.90605,25.771963 -0.92973,37.715473 L 258,120.93095 l 6.51779,14.1834 c 3.58479,7.80086 6.36503,14.33616 6.17831,14.52288 -0.18672,0.18672 -1.62747,-2.35527 -3.20166,-5.64887 z M 138.28327,123.75 c -0.0275,-0.6875 -0.32003,-2.6 -0.65,-4.25 -0.36014,-1.80095 1.17862,-12.19271 3.84997,-26 2.44745,-12.65 5.16001,-29.525 6.02791,-37.5 1.67496,-15.39088 3.39482,-22.929124 6.7236,-29.469904 C 157.02721,21.043129 164.18579,12 165.73683,12 c 1.45448,0 1.68265,2.150474 0.37667,3.55 -1.59963,1.714204 -8.13296,14.255613 -9.71513,18.649208 -1.03385,2.87093 -2.00534,12.279948 -2.92209,28.300792 -1.80568,31.555298 -4.71188,45.69444 -11.92042,57.9949 -2.83165,4.83183 -3.19497,5.19321 -3.27259,3.2551 z m 60.70657,-18.25 c -0.94924,-2.34163 -0.95795,-5.962658 -0.0397,-16.5 1.32759,-15.234729 1.64229,-28.830684 1.00687,-43.5 -0.39774,-9.18216 -0.22063,-10.449812 2.16564,-15.5 1.42935,-3.025 4.68827,-8.65 7.24205,-12.5 2.60003,-3.919723 4.39892,-7.6600593 4.08804,-8.5 -0.30536,-0.825 0.77008,0.075 2.38987,2 2.68009,3.185092 2.82691,3.728924 1.6319,6.044343 -1.88819,3.658492 -4.65514,14.854356 -3.95221,15.991727 0.32766,0.530161 0.23169,0.96706 -0.21327,0.970886 -0.44496,0.0038 -0.90792,2.136793 -1.0288,4.739926 -0.12088,2.603133 -0.60383,4.860987 -1.07322,5.017452 -0.4694,0.156465 -0.65692,1.623499 -0.41673,3.260074 0.2402,1.636576 0.0482,2.977768 -0.42677,2.980429 -0.47493,0.0027 -0.97576,3.490081 -1.11297,7.749824 -0.13721,4.259743 -0.69971,7.895066 -1.25,8.078496 -0.5503,0.18343 -1.00054,1.903668 -1.00054,3.822751 0,4.150818 -4.80832,33.689832 -5.97834,36.726822 -0.77199,2.00384 -0.88085,1.95654 -2.03182,-0.88273 z M 221.5,11 c 0.99549,-1.1 2.03498,-2 2.30998,-2 0.275,0 -0.31449,0.9 -1.30998,2 -0.99549,1.1 -2.03498,2 -2.30998,2 -0.275,0 0.31449,-0.9 1.30998,-2 z"
         id="path9" />
    </g>
  </g>
</svg>
